<?xml version="1.0" standalone="no"?>
<!DOCTYPE svg PUBLIC "-//W3C//DTD SVG 1.1//EN" "http://www.w3.org/Graphics/SVG/1.1/DTD/svg11.dtd" >
<svg xmlns="http://www.w3.org/2000/svg">
<metadata>Generated by IcoMoon</metadata>
<defs>
<font id="mobispot-icon" horiz-adv-x="1024">
<font-face units-per-em="1024" ascent="960" descent="-64" />
<missing-glyph horiz-adv-x="1024" />
<glyph unicode="&#x20;" d="" horiz-adv-x="512" />
<glyph unicode="&#xe000;" d="M359.628 496.424h-97.588v140.248h97.588v37.754c0 206.040 125.686 248.77 264.632 248.77 48.784 0 79.258-6.092 119.408-18.31l-31.662-159.764c-24.422 3.696-45.128 4.884-78.070 4.884-49.992 0-70.81-35.358-70.81-87.746v-25.59h142.622v-140.248h-142.622v-525.528h-203.572l0.074 525.53z" />
<glyph unicode="&#xe001;" d="M1023.284 778.722c-37.754-16.65-78.202-28.048-120.72-33.034 43.386 25.958 76.688 67.206 92.426 116.112-40.714-24.044-85.638-41.492-133.478-50.822-38.266 40.714-92.918 66.314-153.354 66.314-115.866 0-210.074-94.074-210.074-209.94 0-16.538 1.914-32.614 5.366-48.016-174.458 8.816-329.328 92.426-432.998 219.494-18.054-30.874-28.406-67.052-28.406-105.584 0-72.858 37.11-137.196 93.43-174.95-34.324 1.158-66.826 10.64-95.098 26.358 0-0.912 0-1.69 0-2.58 0-102 72.346-186.88 168.582-206.182-17.766-4.742-36.24-7.28-55.408-7.28-13.466 0-26.644 1.178-39.578 3.696 26.758-83.436 104.294-144.25 196.23-145.786-71.792-56.454-162.438-90.224-260.874-90.224-16.876 0-33.68 1.136-50.042 3.072 92.918-59.638 203.418-94.32 322.048-94.32 386.54 0 597.658 320.020 597.658 597.638 0 9.216-0.154 18.166-0.492 27.156 40.934 29.784 76.6 66.802 104.782 108.878z" />
<glyph unicode="&#xe002;" d="M-1.434 273.572c0 90.368 37.058 170.374 117.012 222.526-18.576 16.23-35.942 33.576-48.65 54.518-21.986 35.962-34.786 77.68-34.786 121.652 0 138.998 107.714 248.054 251.444 248.054 45.22 0 85.8-11.664 118.22-35.942h217.866l-13.936-121.744h-89.21c0 0 18.576-34.786 18.576-90.368 0-42.834-10.434-84.552-32.44-120.494-12.708-20.87-31.284-39.352-50.996-55.654 76.504-52.152 117.012-129.812 117.012-222.526 0-170.374-125.154-280.454-285.092-280.454-157.5 0.050-285.020 105.492-285.020 280.432zM433.112 273.572c0 93.87-57.948 154.164-149.524 154.164-90.368 0-149.524-60.314-149.524-154.164 0-92.712 57.928-154.072 149.524-154.072 91.574 0 149.524 63.724 149.524 154.072zM283.658 551.752c69.498 0 119.358 48.65 119.358 120.494 0 73.114-49.786 120.514-119.358 120.514-68.382 0-119.378-47.472-119.378-120.514-0.072-71.844 50.944-120.494 119.378-120.494zM619.694 536.524h146.534v150.016h90.992l0.072-150.016h146.534v-84.194h-146.534v-150.016h-90.992v150.016h-146.534l-0.072 84.194z" />
<glyph unicode="&#xe003;" d="M520.048 310.948l-141.25-141.138c-41.646-41.646-109.384-41.666-151.030 0-41.666 41.666-41.646 109.364 0 151.010l141.23 141.23-71.814 71.814-141.23-141.23c-81.214-81.234-81.142-213.402 0.020-294.564 81.214-81.234 213.402-81.234 294.564-0.020l141.21 141.23-71.7 71.668zM501.698 594.822l141.25 141.21c41.646 41.626 109.384 41.626 151.030 0 41.666-41.666 41.646-109.384 0-151.030l-141.23-141.21 71.814-71.814 141.23 141.21c81.214 81.254 81.142 213.402-0.092 294.636-81.142 81.254-213.33 81.254-294.544 0.020l-141.21-141.23 71.752-71.792zM177.438 833.884l125.564-125.542-47.554-47.576-125.564 125.544zM27.996 610.038h177.572v-67.246h-177.572zM353.69 935.732h67.246v-177.572h-67.246zM844.36 71.884l-125.542 125.564 47.554 47.554 125.542-125.562zM816.138 362.956h177.572v-67.246h-177.572zM600.792 147.59h67.246v-177.552h-67.246z" />
<glyph unicode="&#xe004;" d="M882.77 651.224l-378.542-378.45-378.358 378.45z" />
<glyph unicode="&#xe005;" d="M658.44 818.124c35.498 34.41 85.070 53.678 134.45 52.832 41.186-0.022 82.268-13.99 114.982-39.014 32.282-24.178 56.48-58.892 68.126-97.496 20.244-64.976 3.126-140.31-44.534-189.168-20.684-20.594-41.274-41.274-61.936-61.89-13.968-13.706-27.068-28.608-43.576-39.362-34.084-23.722-76.096-35.584-117.524-33.932-24.59 1.022-48.768 7.038-71.426 16.53 16.77 17.072 33.842 33.8 50.638 50.834 40.992-9.84 86.438 2.564 116.872 31.716 26.806 26.784 53.57 53.59 80.4 80.378 22.856 23.786 35.802 56.784 35.192 89.784-0.022 38.43-18.682 76.38-49.138 99.798-27.72 22.18-65.084 32.216-100.124 26.154-27.372-4.236-53.266-17.792-72.274-37.952-25.006-25.026-50.030-50.052-75.078-75.056-29.954-30.326-42.904-76.574-32.52-117.936-17.074-16.836-33.694-34.128-51.028-50.682-14.032 32.476-19.638 68.536-15.142 103.686 4.866 39.776 22.484 78.010 50.052 107.14 27.842 27.896 55.734 55.744 83.588 83.636zM368.386 300.782c114.112 113.83 227.946 227.944 341.972 341.862 15.206-15.142 30.304-30.348 45.534-45.468-113.48-113.352-226.816-226.838-340.276-340.19-2.020-2.848-4.344 0.998-5.91 2.236-13.688 13.948-27.72 27.524-41.32 41.56zM273.956 433.62c30.088 28.978 70.232 46.966 111.702 51.266 33.91 4.040 68.602-2.194 99.82-15.684-16.356-17.204-33.606-33.584-50.182-50.638-41.012 9.688-86.48-2.196-116.938-31.452-26.48-26.46-52.94-52.964-79.422-79.402-28.242-28.304-41.752-70.558-34.974-109.964 4.17-27.828 18.184-53.914 38.646-73.166 23.7-23.204 56.872-35.628 89.87-35.758 32.282 0.63 64.302 13.252 87.546 35.822 27.11 27.218 54.352 54.308 81.462 81.548 18.466 20.094 30.152 46.294 32.934 73.448 0.718 14.182 0.414 28.416-2.302 42.404 16.944 16.488 33.412 33.456 50.288 50.010 15.946-36.062 21.202-77.072 13.298-115.808-6.516-34.628-22.81-67.388-46.662-93.304-27.828-27.978-55.808-55.786-83.656-83.742-50.29-50.444-129.994-67.344-196.946-43.88-48.534 16.314-89.656 53.156-111.53 99.43-18.292 37.908-23.114 81.898-14.684 123.040 7.842 37.342 26.872 72.47 54.634 98.756 25.718 25.678 51.396 51.374 77.096 77.074z" horiz-adv-x="1084" />
<glyph unicode="&#xe006;" d="M188.304 845.864v-614.882h707.564v-82.934l-790.57 0.002v697.814h-82.934v-779.704h954.246v779.704h-788.306zM433.89 477.716h-123.352v123.352h123.352v-123.352z" />
<glyph unicode="&#xe007;" d="M57.128 968.232h885.352v-204.984h-885.352zM57.128 655.114v-728.802h885.35v728.802h-885.35zM401.726 94.31h-61.194v310.856h-82.462l-7.138 57.928h150.794v-368.784zM723.138 215.562h-40.5v-121.252h-60.036v121.252h-154.614v31.672l95.6 224.522h63.416l-84.132-198.338h79.73v62.792h60.038v-62.792h40.5l-0.002-57.856z" />
<glyph unicode="&#xe008;" d="M56.678 606.7h108.134v-680.388h674.766v680.388h102.492v153.774h-885.392zM56.678 968.232h885.372v-102.492h-885.372z" />
<glyph unicode="&#xe009;" d="M38.256 332.994v-345.242h345.294zM86.692 381.204l529.316 529.316 344.032-343.962-529.314-529.336z" />
<glyph unicode="&#xe00a;" d="M19.046 875.582h142.93v-142.992h-142.93zM259.032 875.582h719.994v-142.992h-719.994zM19.046 635.576h142.93v-142.992h-142.93zM259.032 635.576h719.994v-142.992h-719.994zM19.046 395.51h142.93v-142.93h-142.93zM259.032 395.51h719.994v-142.93h-719.994zM19.046 155.586h142.93v-142.99h-142.93zM259.032 155.586h719.994v-142.99h-719.994z" />
<glyph unicode="&#xe00b;" d="M103.122 778.888c35.196 33.18 66.808 70.17 104.020 101.106l-1.12-1.568c-31.61-34.524-65.91-66.358-98.64-99.984 104.020-102.9 206.694-206.696 310.266-309.594 9.416-9.64 18.606-19.28 27.35-29.592-15.468 12.328-29.368 26.452-43.268 40.576-99.31 99.984-199.296 199.296-298.608 299.056zM884.166 880.218c36.542-30.938 69.050-66.58 102.9-100.656l-2.018-0.674c-34.3 32.284-67.702 65.462-99.762 99.986l-1.12 1.344zM206.022 878.426l0.896 1.12c112.538-113.884 225.974-226.646 339.186-339.634 112.762 113.212 225.748 226.424 339.182 338.962 32.060-34.524 65.462-67.702 99.762-99.986-101.104-99.088-200.192-200.416-300.85-299.952-13.004-12.778-25.782-25.782-37.438-39.904 113.436-113.66 227.318-226.646 340.306-340.754-34.524-32.058-68.6-65.012-99.984-100.208l-0.896-0.896c-9.416 11.656-19.73 22.642-30.266 33.4-83.17 82.724-165.894 165.894-249.064 248.618-20.176 20.4-40.128 41.248-61.426 60.528-113.658-113.66-227.766-226.646-340.528-341.202-32.73 34.076-65.014 68.598-100.21 99.76 112.988 114.108 227.094 227.094 340.306 340.978-8.744 10.312-17.934 19.952-27.35 29.592-103.572 102.898-206.246 206.694-310.266 309.594 32.73 33.626 67.030 65.46 98.64 99.984zM985.048 778.888l2.018 0.674 1.792 0.672c-7.396-8.294-15.244-16.59-23.090-24.66-101.104-100.656-201.986-201.538-302.644-302.644-5.154-4.93-10.536-9.638-16.364-13.898 11.656 14.122 24.434 27.126 37.438 39.904 100.658 99.536 199.746 200.864 300.85 299.952zM204.902-1.482c112.762 114.556 226.87 227.542 340.528 341.202 21.298-19.28 41.25-40.128 61.426-60.528 83.17-82.724 165.894-165.894 249.064-248.618 10.536-10.758 20.85-21.744 30.266-33.4-20.85 18.156-39.904 38.558-59.41 58.060-93.93 93.484-187.19 187.416-281.122 280.676-113.212-114.334-227.766-227.32-340.978-341.652-32.058 36.766-70.392 67.704-101.554 105.142l1.57-1.122c35.196-31.162 67.48-65.684 100.21-99.76zM887.082-1.93c31.384 35.196 65.46 68.15 99.984 100.208l1.346 1.122c-19.952-24.886-44.39-45.958-66.358-69.048-11.434-10.986-21.746-23.316-34.972-32.282z" horiz-adv-x="1094" />
<glyph unicode="&#xe00c;" d="M0 832v-832h1024v832h-1024zM960 64h-896v704h896v-704zM704 608c0-53.020 42.98-96 96-96s96 42.98 96 96c0 53.020-42.98 96-96 96s-96-42.98-96-96zM896 128h-768l192 512 256-320 128 96z" />
<glyph unicode="&#xe00d;" d="M304 352c0-114.876 93.124-208 208-208s208 93.124 208 208-93.124 208-208 208-208-93.124-208-208zM960 704h-224c-16 64-32 128-96 128h-256c-64 0-80-64-96-128h-224c-35.2 0-64-28.8-64-64v-576c0-35.2 28.8-64 64-64h896c35.2 0 64 28.8 64 64v576c0 35.2-28.8 64-64 64zM512 68c-156.85 0-284 127.148-284 284s127.15 284 284 284c156.852 0 284-127.15 284-284s-127.146-284-284-284zM960 512h-128v64h128v-64z" />
<glyph unicode="&#xe00e;" d="M112.584 867.072c137.070 0 273.96 0 411.030 0 28.236 0 56.294 0.714 84.53-1.072h-1.072c-164.236-1.61-328.468-0.18-492.7-0.716-0.358-270.386 0.536-540.95-0.358-811.336v-1.608l-0.178-1.25c-0.716 12.33-1.072 24.482-1.252 36.812 0 259.664 0 519.506 0 779.17zM114.372 865.284c164.234 0.536 328.466-0.894 492.7 0.714 16.978-15.548 33.418-31.81 48.608-48.966 17.69-22.874 40.566-40.746 60.94-60.94 17.334-18.944 36.636-35.92 53.434-55.22 9.114-11.794 19.658-22.338 30.916-31.81-0.894-205.158 0-410.136-0.358-615.114-228.926 0-457.672 0-686.598 0 0.894 270.386 0 540.95 0.358 811.336zM175.132 804.524c-0.178-214.986 0.178-430.152-0.178-645.138 0.178-15.19 0.536-30.56 1.43-45.75l0.178 1.25c187.644-0.536 375.468 0 563.29-0.178-0.178 159.408 0.358 318.638-0.178 477.866h1.072c-70.59 2.502-141.18 0.358-211.77 1.072-0.894 70.59 1.608 141.358-1.25 211.77l-0.178-1.072c-117.414 0.536-234.826 0-352.416 0.18zM587.95 652.622c47.716 0.358 95.252-0.894 142.966 0.894-6.076 7.328-12.868 14.118-20.194 20.016-16.442 21.088-37.886 37.35-56.83 55.758-8.4 9.828-17.334 19.3-26.45 28.594-10.184 15.19-24.126 27.164-38.064 38.78-3.040-47.898-0.892-95.97-1.428-144.042zM655.68 817.034c20.194-20.372 43.962-37.528 60.94-60.94-20.374 20.194-43.248 38.064-60.94 60.94zM175.132 804.524c117.59-0.178 235.002 0.358 352.414-0.178v-1.61c-116.876 0-233.75 0-350.626 0-0.358-228.746 0.536-457.494-0.358-686.24v-1.608l-0.178-1.25c-0.894 15.19-1.25 30.56-1.43 45.75 0.358 214.984 0 430.15 0.178 645.136zM527.546 804.344l0.178 1.072c2.862-70.412 0.358-141.18 1.25-211.77 70.59-0.714 141.18 1.43 211.77-1.072h-2.86c-70.23-1.608-140.464-0.356-210.696-0.714 0.178 70.232-0.536 140.644 0.358 210.876v1.608zM587.95 652.622c0.536 48.072-1.608 96.146 1.43 144.040l0.358-1.966c0.358-46.642-0.358-93.464 0-140.286 45.928 0 91.856 0 137.606 0-5.362 5.898-10.722 11.794-15.726 18.050l-0.894 1.072c7.328-5.898 14.116-12.688 20.194-20.016-47.718-1.788-95.254-0.538-142.968-0.894zM589.376 796.66c13.94-11.616 27.88-23.59 38.064-38.78-12.684 12.152-25.73 23.948-37.704 36.814l-0.36 1.966zM653.892 729.288c18.944-18.406 40.388-34.67 56.83-55.758l0.894-1.072c-19.838 18.228-40.924 35.562-57.724 56.83zM770.054 700.872c11.258-10.366 23.588-20.016 31.988-32.882l-1.072 1.072c-11.258 9.472-21.804 20.016-30.916 31.81zM800.97 669.062l1.072-1.072c0.894-205.158 0.18-410.494 0.358-615.83-229.462 0.178-458.924-0.358-688.386 0.178v1.61c228.926 0 457.674 0 686.598 0 0.358 204.978-0.536 409.958 0.358 615.114zM737.884 592.576h1.788c0.536-159.23 0-318.458 0.178-477.866-187.822 0.178-375.646-0.358-563.29 0.178l0.002 1.608c187.108 0 374.216 0 561.502 0 0 158.692 0.178 317.386-0.18 476.080z" horiz-adv-x="940" />
<glyph unicode="&#xe00f;" d="M697.962 959.254h9.966l0.712-1.424-1.66-1.424c-3.56-0.71-6.88 0-9.966 2.372l0.948 0.476zM864.508 959.254h14.472l0.948-0.476c-4.27-3.794-10.44-3.556-15.184-0.948l-1.186 0.714 0.95 0.71zM690.61 954.508c2.134 1.424 4.27 2.848 6.404 4.27 3.086-2.372 6.406-3.082 9.966-2.372 6.166-2.37 12.336-4.98 18.030-7.828 2.846-2.372 5.456-5.218 7.828-8.066 4.508-10.676 8.066-21.826 14.472-31.552 2.136-3.322 4.508-6.17 7.354-8.78 1.662-0.236 4.982-0.474 6.406-0.71 3.558-0.712 5.694 0.474 6.644 3.558 1.186 0 3.558 0 4.744 0 10.202-0.238 20.164-0.238 30.366-0.238h1.9c2.846-2.846 6.88-5.456 11.148-4.032 2.136 0.474 5.932 1.186 8.068 1.66 3.32 4.982 5.456 10.914 7.352 16.608 0.476 0.948 1.424 3.084 1.9 4.032 8.066 13.998 19.692 25.622 31.552 36.772 4.744-2.608 10.914-2.846 15.184 0.948 0.71-0.71 2.61-1.896 3.32-2.372 4.746-3.556 9.254-7.354 13.524-11.622l1.424-1.424c4.034-4.746 7.592-9.964 11.148-15.184 0-4.032 0-12.1 0-16.134-5.928-1.186-7.828-7.828-4.506-12.572-3.084-5.932-5.694-12.1-8.302-18.268-1.186-3.322-4.034-9.964-5.458-13.050 1.66-1.186 3.084-2.134 4.506-3.32 2.612-1.898 5.222-2.136 8.068-0.712 0.474-3.32 2.136-5.93 4.744-7.828 11.862-11.388 21.59-24.436 34.4-34.638 0.95 0.238 2.61 0.474 3.322 0.712 10.438 1.662 20.404 5.456 29.418 10.914 3.796 1.896 7.592 4.032 11.388 6.166 2.846-3.082 6.168-3.794 10.2-1.658 2.612-2.374 4.746-2.374 7.118 0 1.898-1.424 4.032-2.848 5.932-4.272 7.828-8.302 14.234-17.318 21.114-26.096-3.56-3.084-3.322-9.016 0.236-11.864-8.776-11.15-17.792-22.062-28.706-30.84-1.896-0.712-3.558-1.422-5.456-2.136-4.27-1.658-8.304-3.32-12.336-5.218-0.712-0.238-1.898-0.948-2.61-1.186-3.32 4.27-9.728 1.424-9.728-3.796-0.948-2.846-0.71-5.932 0.476-8.778-1.186-3.796-0.948-7.828 0.71-11.624 0.238-0.95 0.952-3.322 1.424-4.508 0.238-9.016 0.476-18.268 0-27.52v-1.9c-2.61-2.608-4.032-6.166-2.846-9.726-0.712-2.848-1.424-7.354 1.898-8.778 8.304-5.694 18.030-9.016 27.52-11.624 2.846-1.186 5.456-2.136 8.066-3.558 8.066-7.83 14.708-17.082 22.064-25.86 0-4.032 0-12.098 0-16.134-9.014-8.776-17.794-17.792-26.808-26.332-0.95-0.474-2.612-1.424-3.322-1.898-4.982 1.424-9.964 1.898-14.946 1.424-1.424 0-3.796 0.236-4.984 0.474 0.95 4.27-5.218 6.642-7.352 2.61-1.9 1.186-4.034 2.372-5.932 3.32-6.168 3.56-12.812 6.17-19.69 8.066-0.95 0.238-3.084 0.712-4.034 0.95-16.844-15.658-32.264-32.738-49.11-48.398-2.372-1.898-2.608-4.032-0.948-6.642 0.948-2.136 1.898-4.508 2.848-6.642 3.32-11.388 7.352-22.54 13.046-32.976-1.658-3.796-1.658-7.594 0-11.39-8.304-10.436-16.368-21.114-27.52-28.942-3.082-0.238-5.93-1.186-8.304-3.32l-2.37-0.238c-0.712 3.082-2.848 4.27-5.932 3.32-1.422-0.238-4.034-0.712-5.22-1.186-0.472 4.032-4.98 4.746-8.066 4.984l-1.424 0.234c-0.236 4.272-3.794 7.594-8.066 7.118-4.742 10.914-9.726 21.826-13.522 32.976-0.712 3.796-1.66 7.356-2.372 10.914-2.608 0.238-4.982 0.476-7.592 0.476-1.662-0.238-4.982-0.95-6.404-1.424-3.56 0.948-5.458-0.238-6.17-3.322h-2.372c-11.862 0-23.724 0.236-35.586 0.236h-2.61c-0.474 3.086-2.372 4.272-5.694 4.034-3.084 0.476-7.118-0.238-8.304-3.796-2.134-3.558-4.032-7.118-5.93-10.912-8.54-14.708-17.556-29.654-30.604-40.806-1.186-0.474-3.796-1.66-4.982-2.374-5.93 3.322-10.676 3.086-14.234-0.71-1.186 0.71-3.796 2.134-4.984 2.846-8.538 7.83-16.842 16.132-23.486 25.86-0.236 1.186-1.186 3.796-1.66 4.982 1.66 3.084 1.896 6.168 1.186 9.488 0.474 0.952 0.948 2.848 1.424 3.798 2.372 6.88 4.982 13.76 6.88 20.64 0.472 1.186 1.186 3.558 1.424 4.744 4.506-1.186 7.116 4.984 3.32 7.356l1.186 1.66c0.236 1.186 0.474 3.796 0.712 4.982-11.626 14.234-27.282 24.198-39.382 37.958l-1.422 2.136c-3.086 4.506-6.17 8.776-9.018 13.284-5.456-2.608-11.15-4.98-16.368-8.066-0.712-0.474-2.372-1.422-3.086-1.898-3.32 4.984-11.624 0.476-6.88-4.506-4.506-1.662-9.014-3.56-13.994-4.508-4.034 0.238-12.576 0.474-16.846 0.71-12.098 6.644-21.352 17.32-29.418 28.47 0.238 4.034 0.95 12.338 1.186 16.37 3.56 6.88 7.354 13.522 10.914 20.402 1.424 0 4.506 0.476 6.168 0.476 4.508 2.61 9.252 5.218 13.998 7.59 8.304 4.034 16.844 8.066 23.012 14.946 0.236 1.662 0.474 4.746 0.712 6.406 0.71 3.56-0.476 5.694-3.56 6.406v2.372c0 10.914 0 21.826 0.714 32.976 0 1.186 0.472 3.796 0.472 4.982 2.374 1.662 3.084 3.798 2.61 6.644 0 1.66-0.236 4.744-0.236 6.406l-1.188 1.424c-4.982 7.352-13.522 9.488-21.588 11.622-0.948 0.476-2.848 1.186-4.034 1.424-4.98 3.086-9.726 6.17-14.708 9.49-1.186 1.188-3.56 3.322-4.746 4.27-3.32 4.034-6.404 8.304-9.726 12.336 0.474 4.034 0.95 12.1 1.186 16.134 0.238 0.95 0.474 3.084 0.474 4.034 2.61 2.61 5.458 6.642 2.848 10.438 0.948 0.71 2.846 2.134 3.796 2.846 4.508 4.034 9.254 7.83 14.234 11.388 2.372 1.424 4.744 2.848 7.118 4.508 3.32-4.034 9.252-4.034 13.284-1.424 4.746-2.134 9.252-4.272 13.998-6.406 6.642-3.322 13.286-6.166 20.404-8.54 2.134-0.712 6.404-2.134 8.54-2.848 12.574 14.946 25.86 28.47 40.094 41.756 5.456 4.744 8.066 11.624 9.49 18.742 2.134 4.27-3.322 9.016-6.88 5.694-3.798 8.778-6.88 18.030-9.49 27.282-0.238 3.796-0.712 11.864-0.95 15.896 8.066 9.014 15.658 18.742 25.386 26.332zM772.22 807.894h1.898c-3.794-0.474-7.354-1.66-10.912-2.848-0.948 6.17-12.574 2.848-9.728-2.846-3.322-0.948-6.88-2.134-9.964-3.558-26.096-9.728-47.448-35.112-48.398-63.344-4.034-0.474-4.506-2.372-2.134-5.456 0-9.728 0.238-19.69 0.948-29.418-3.32-2.608-2.848-4.746 0.95-6.168l0.236-1.9c0.712-15.894 9.254-29.892 20.64-40.566 4.034-4.982 9.492-9.016 14.236-13.286 8.778-8.778 20.402-14.472 32.738-15.896 1.424 0 4.034-0.238 5.456-0.238 0.476-3.794 2.61-4.268 5.694-1.422 2.372-3.558 8.542-2.846 10.204 0.712 1.896 0 5.218 0 7.114 0 1.662-3.558 7.832-4.27 10.202-0.712 3.086-2.846 4.982-2.372 5.694 1.422h2.61c28.232 1.662 50.77 24.2 62.87 48.16l-1.186-1.422c1.66 3.558 3.084 7.354 4.032 11.15 5.456-1.66 7.828 7.592 3.322 10.202 1.186 3.084 1.896 6.404 2.372 9.726 0.476 9.966 0 20.166-0.476 30.13v-1.66c-0.472 4.746-1.422 9.488-2.846 13.998-2.848 24.672-21.35 46.022-43.89 55.276l1.9-1.422c-10.676 4.98-22.302 9.014-34.164 10.438l0.238 3.084c-9.964-0.712-19.692-1.424-29.656-2.136zM706.98 956.406l1.66 1.424c4.744-2.134 9.49-4.032 13.76-6.88 0.712-0.71 2.134-1.898 2.61-2.372-5.694 2.848-11.864 5.458-18.030 7.828zM833.192 921.058c4.98 15.894 15.42 29.654 30.366 37.486l1.186-0.714c-11.86-11.15-23.486-22.774-31.552-36.772zM883.248 956.406c4.034-1.66 7.83-3.084 11.864-4.742 0.238-2.138 0.948-4.508 1.66-6.88-4.27 4.268-8.778 8.066-13.524 11.622zM665.224 928.176c4.984 11.624 14.71 19.928 25.386 26.332-9.728-7.59-17.32-17.318-25.386-26.332zM722.4 950.95c4.506-3.322 8.54-7.354 11.624-11.86l-1.186 1.422c-2.372 2.848-4.982 5.694-7.828 8.066-0.476 0.474-1.898 1.662-2.61 2.372zM895.112 951.664c4.032-0.952 7.352-4.272 8.304-8.542-1.186 0-4.034 0.238-5.22 0.238l-1.424 1.424c-0.712 2.372-1.422 4.742-1.66 6.88zM898.196 943.36c1.186 0 4.034-0.238 5.22-0.238 1.896-4.984 3.794-9.964 5.928-14.946-3.556 5.22-7.114 10.438-11.148 15.184zM732.838 940.512l1.186-1.422c5.932-9.254 9.016-19.93 13.286-30.13-6.406 9.726-9.964 20.876-14.472 31.552zM661.428 916.788c0.948 2.846 2.848 8.542 3.796 11.388 0.238-4.032 0.712-12.1 0.95-15.896-1.188 0.95-3.56 3.322-4.746 4.508zM909.344 928.176c0.952-1.186 3.086-3.56 4.034-4.746-0.948-2.846-3.082-8.54-4.034-11.388 0 4.034 0 12.102 0 16.134zM831.292 917.026c-1.896-5.694-4.032-11.626-7.352-16.608 2.372 5.456 4.982 10.914 7.352 16.608zM904.838 899.47c-3.322 4.744-1.422 11.386 4.506 12.572-0.71-4.268-2.134-8.776-4.506-12.572zM772.458 903.028c10.202 0 20.164-0.238 30.366-0.238-10.202 0-20.164 0-30.366 0.238zM754.664 900.18c1.662 2.136 4.034 2.61 6.642 1.186l-0.236-1.896c-1.424 0.236-4.744 0.474-6.406 0.71zM761.306 901.366c1.662 0.476 4.746 1.186 6.408 1.662-0.95-3.084-3.086-4.27-6.644-3.558l0.236 1.896zM804.724 902.79c4.032 0.476 9.252 0.476 11.148-4.032-4.268-1.424-8.302 1.186-11.148 4.032zM675.664 884.998c3.558 3.322 9.014-1.424 6.88-5.694l-0.95-0.95c-2.848 1.424-4.744 3.558-5.93 6.644zM891.078 868.152c1.424 3.086 4.272 9.728 5.458 13.050-0.476-4.508-0.714-8.778-0.952-13.284 0-0.714 0-2.374 0-3.086-1.422 1.186-2.846 2.134-4.506 3.32zM681.594 878.354l0.95 0.95c-1.424-7.118-4.034-13.998-9.49-18.742-14.234-13.286-27.52-26.81-40.094-41.756-2.136 0.714-6.406 2.136-8.54 2.848l-0.95 0.474c11.386 1.9 18.266 11.862 25.86 19.454 10.912 11.862 23.25 23.012 32.264 36.772zM895.584 867.918c3.086 0 6.17-1.188 8.78-2.612l-0.712-1.186c-2.846-1.424-5.456-1.186-8.068 0.712 0 0.712 0 2.372 0 3.086zM904.364 865.306c4.032-0.948 8.304-5.22 5.694-9.49l-1.662 0.476c-2.608 1.898-4.27 4.508-4.744 7.828l0.712 1.186zM908.396 856.292l1.662-0.476c14.232-7.59 23.012-22.064 32.738-34.162-12.81 10.202-22.538 23.25-34.4 34.638zM986.924 839.446c2.846 0 8.304 0 11.15 0l-0.95-1.658c-4.032-2.136-7.354-1.424-10.2 1.658zM576.734 838.024c4.032 2.372 8.542 2.136 13.284-1.424-4.032-2.61-9.964-2.61-13.284 1.424zM997.124 837.788l0.95 1.658c1.662-0.472 4.506-1.186 6.168-1.658-2.372-2.374-4.506-2.374-7.118 0zM555.618 824.028c4.508 3.32 9.252 6.404 13.998 9.488-4.98-3.558-9.726-7.354-14.234-11.388l0.236 1.9zM946.118 822.366c9.726 3.558 19.69 7.354 29.418 10.914-9.014-5.458-18.98-9.252-29.418-10.914zM1010.174 833.516c9.964-6.168 15.184-16.606 21.114-26.096-6.88 8.778-13.286 17.794-21.114 26.096zM604.016 830.194c6.406-2.846 12.812-5.694 19.454-8.066l0.95-0.474c-7.118 2.374-13.762 5.218-20.404 8.54zM549.924 819.52c0.714 3.084 2.61 4.508 5.694 4.508l-0.236-1.9c-0.95-0.712-2.848-2.136-3.796-2.846l-1.662 0.238zM549.924 819.52l1.662-0.238c2.61-3.796-0.238-7.828-2.848-10.438-0.236 3.558-0.236 7.354 1.186 10.676zM772.22 807.894c9.964 0.712 19.692 1.424 29.656 2.136l-0.238-3.084c-9.252 0.71-18.506 0.948-27.52 0.948h-1.898zM753.478 802.2c-2.846 5.694 8.78 9.016 9.728 2.846-3.322-0.948-6.406-2.134-9.728-2.846zM1031.288 807.42l0.712-0.95v-9.962l-0.476-0.952c-3.558 2.848-3.796 8.78-0.236 11.864zM543.282 793.66c1.186 2.848 3.796 8.304 4.982 11.15-0.236-4.034-0.712-12.1-1.186-16.134-0.948 1.186-2.848 3.798-3.796 4.984zM695.116 735.298c0.95 28.232 22.302 53.616 48.398 63.344-23.012-14.472-39.62-37.958-48.398-63.344zM833.902 797.93c22.54-9.254 41.042-30.604 43.89-55.276-8.304 21.826-23.96 39.618-41.99 53.854l-1.9 1.422zM1002.818 764.716c10.914 8.778 19.93 19.69 28.706 30.84-6.88-12.574-13.76-27.044-28.706-30.84zM547.078 788.676c3.322-4.032 6.406-8.302 9.726-12.336-0.71 0.238-2.372 0.714-3.082 0.95-2.136 3.796-4.27 7.83-6.644 11.386zM553.722 777.29c0.71-0.236 2.372-0.712 3.082-0.95 1.186-0.948 3.56-3.082 4.746-4.27 0.238-1.186 0.238-3.558 0.474-4.744-5.22 0.71-6.88 5.932-8.302 9.964zM561.55 772.070c4.982-3.32 9.728-6.404 14.708-9.49-4.742 1.662-9.488 3.086-14.234 4.746-0.236 1.186-0.236 3.558-0.474 4.744zM985.026 757.362c4.032 1.898 8.066 3.56 12.336 5.218-4.034-1.658-8.304-3.32-12.336-5.218zM580.292 761.156c8.066-2.134 16.606-4.27 21.588-11.622-6.88 4.508-14.232 8.066-21.588 11.622zM972.688 752.38c0 5.22 6.408 8.066 9.728 3.796-2.61-1.9-5.22-3.086-8.066-4.034l-1.662 0.238zM972.688 752.38l1.662-0.238c1.186-2.846 1.424-5.694 0.238-8.778l-1.424 0.238c-1.186 2.846-1.424 5.932-0.476 8.778zM601.408 741.468c-1.186 2.846-0.714 4.98 1.66 6.642 0-1.662 0.236-4.746 0.236-6.406l-1.896-0.236zM973.164 743.602l1.424-0.238c1.422-3.32 1.422-6.642 0.472-10.2l-1.186-1.186c-1.658 3.796-1.896 7.828-0.71 11.624zM601.408 741.468l1.896 0.236c0.474-2.846-0.236-4.982-2.61-6.644l-1.186 1.424c0.476 1.186 1.424 3.56 1.9 4.984zM598.56 728.894c-1.424 2.608-1.186 5.218 0.948 7.59l1.186-1.424c0-1.186-0.472-3.796-0.472-4.982l-1.662-1.184zM692.982 729.842c-2.372 3.084-1.9 4.982 2.134 5.456-0.236-1.424-0.236-4.034-0.236-5.456h-1.898zM975.060 733.164c2.612-1.186 3.322-3.56 1.9-6.408l-1.662 0.714c-0.472 1.186-1.186 3.558-1.424 4.508l1.186 1.186zM598.56 728.894l1.662 1.184c-0.714-11.15-0.714-22.062-0.714-32.976-0.238 10.676-0.71 21.116-0.948 31.792zM692.982 729.842h1.898c0-10.2 0-20.404 0.236-30.368l-1.186 0.95c-0.71 9.728-0.948 19.69-0.948 29.418zM880.638 728.656v1.66c0.476-9.964 0.952-20.164 0.476-30.13 0 9.49-0.238 18.98-0.476 28.47zM975.298 727.47l1.662-0.714c-0.476-9.014-1.186-18.028-1.662-26.806 0.476 9.252 0.238 18.504 0 27.52zM693.93 700.424l1.186-0.95c0-1.424-0.236-4.032-0.236-5.218-3.798 1.422-4.27 3.56-0.95 6.168zM972.452 688.324c-1.186 3.56 0.236 7.118 2.846 9.726 0.712-3.32 0.238-6.642-1.186-9.726h-1.66zM599.508 694.73c3.084-0.712 4.27-2.846 3.56-6.406l-1.898 0.238c-0.476 1.422-1.186 4.744-1.662 6.168zM695.116 692.356c4.984-12.81 10.678-25.384 18.268-37.008 0.712-0.95 1.898-2.61 2.372-3.558-11.386 10.674-19.928 24.672-20.64 40.566zM875.42 680.258c0.948 3.56 2.136 6.88 3.322 10.202 4.506-2.61 2.134-11.862-3.322-10.202zM601.17 688.562l1.898-0.238c-0.238-1.66-0.476-4.744-0.712-6.406-2.134 1.662-2.61 3.796-1.186 6.644zM972.452 688.324h1.66c1.186-2.848 1.424-5.93 0.238-8.778-3.322 1.424-2.61 5.93-1.898 8.778zM974.35 679.546c9.49-3.558 18.506-7.592 27.52-11.624-9.49 2.608-19.216 5.93-27.52 11.624zM871.388 669.108l1.186 1.422c-12.1-23.96-34.638-46.498-62.87-48.16 26.098 6.88 45.788 26.098 61.684 46.738zM565.822 661.278c4.506 1.9 9.014 3.796 13.522 5.694-4.746-2.372-9.49-4.98-13.998-7.59l0.476 1.896zM1009.936 664.364c10.676-4.034 16.606-14.236 22.064-23.488v-2.372c-7.356 8.778-13.998 18.030-22.064 25.86zM559.178 658.906c1.424 2.61 3.558 3.322 6.644 2.372l-0.476-1.896c-1.662 0-4.744-0.476-6.168-0.476zM548.264 638.504c3.322 6.88 7.118 13.76 10.914 20.402-3.56-6.88-7.354-13.522-10.914-20.402zM713.384 655.348c5.456-5.694 10.914-11.388 16.608-16.844-4.744 4.27-10.202 8.304-14.236 13.286-0.474 0.948-1.66 2.608-2.372 3.558zM345.898 647.282c6.642 0.236 13.284 0 19.928-0.236-6.644 0.236-13.286 0.236-19.928 0.236zM326.206 638.030c4.746 3.794 10.202 6.168 15.658 8.302-5.694-3.084-11.388-6.166-17.082-9.252l1.424 0.95zM341.864 646.332c0.95 0.238 2.848 0.714 4.034 0.95 6.642 0 13.284 0 19.928-0.236 0.95-0.238 3.084-0.714 4.032-0.95 6.17-3.322 12.338-6.88 18.268-10.676 3.084-2.61 5.932-5.22 9.016-7.592-1.188-5.22 1.66-10.676 6.644-12.338 0.948-4.506 1.66-9.252 2.134-13.758 0.95-18.742-0.474-37.722 2.372-56.228 1.188-0.71 3.796-2.134 5.22-2.844 5.22-0.952 10.438-1.9 15.656-3.56 6.644-2.134 13.050-4.272 19.692-6.406 11.152-4.032 21.352-9.726 31.792-15.42 4.98-3.086 9.962-6.644 15.42-9.014 16.606 9.488 29.654 23.486 42.466 37.244 5.692 4.27 11.624 8.304 17.556 11.864 0.948 0.238 2.846 0.71 3.558 0.71 8.304 0.714 16.37 0.95 24.672 1.424 14.71-11.624 27.52-25.622 38.434-41.042 0-6.644 0-13.286 0-20.166-14.47-22.3-36.062-39.146-51.242-60.734 0.234-1.424 0.71-3.796 0.948-5.218 0.474-0.95 1.422-2.61 1.896-3.558 6.644-14.236 13.288-27.996 20.168-41.994 0.472-0.948 1.422-3.084 1.66-4.032 2.134-5.694 4.268-11.152 6.404-16.608 1.186-3.32 2.61-6.404 3.796-9.488-2.61-1.9-3.084-4.034-1.186-6.882 1.186-0.948 3.558-2.846 4.746-3.556 18.028-1.186 36.298-1.424 54.566-1.662 2.608-2.372 4.98-2.61 7.59-0.238 0.712-0.474 2.61-1.424 3.56-1.898 5.456-3.558 10.912-7.116 16.37-10.914 2.846-2.608 6.166-4.742 9.726-5.928 2.61-8.304 6.406-16.134 9.964-23.964 0.236-4.032 0.95-12.098 1.186-15.894-1.422-3.794-2.61-7.592-4.27-11.388-9.254-10.676-19.454-21.114-31.080-29.18-0.948-0.474-2.846-1.66-3.794-2.136-0.712 4.034-7.118 2.61-5.932-1.422-17.080 0.948-33.926 1.898-51.006 1.186-4.984 0.236-8.304-4.034-11.388-7.118-3.084-2.372-1.898-6.88-0.476-9.964-3.556-1.422-3.794-6.168-1.422-8.778-1.186-2.372-2.134-4.746-3.32-7.118-4.034-7.828-7.118-16.132-9.728-24.434-1.662-3.558-3.322-7.118-5.218-10.438-4.746-8.068-9.966-15.896-14.948-23.726 18.030-18.268 36.536-36.772 51.244-58.124l0.948-1.424c-1.658-2.846-1.186-5.218 1.188-7.118-1.66-4.032-1.424-7.828 0.712-11.386-4.034-1.898-3.558-7.118-1.662-10.44l-0.948-1.66c-9.966-12.1-21.588-23.012-34.4-32.264-0.948-0.476-3.322-1.898-4.272-2.372 0.476 4.032-5.456 4.27-5.218 0.238-2.372 0-7.118 0.236-9.49 0.472-2.136 2.372-4.508 2.372-6.88 0.476-16.132 12.336-31.79 25.622-46.026 40.33-5.456 4.982-11.86 13.286-20.164 9.254-17.082-6.642-32.74-17.082-48.398-26.572-0.71-0.476-2.61-1.662-3.32-2.134-3.56 4.744-11.864 2.372-9.728-4.034-4.508-0.95-9.016-1.898-13.76-2.846 0.474 3.558-5.932 4.744-6.168 0.71-7.354-20.402-6.644-42.228-5.694-63.582-3.796-1.186-3.796-6.404-1.422-9.014l-0.95-1.422c-10.438-11.152-22.302-21.116-35.586-28.47-1.186-0.236-3.796-0.948-4.982-1.186-6.406 3.558-11.864 3.084-16.37-1.898h-3.796l-1.66 1.186c-7.592 5.694-15.658 11.15-22.776 17.32l-1.424 2.134c-3.796 6.404-7.59 13.050-10.912 19.93-0.95 21.112-0.238 42.466-0.238 63.578-0.948-0.236-3.32-0.948-4.506-1.422l-1.662-0.474c-1.424 0.71-4.27 2.372-5.694 3.082-1.66 2.136-3.796 2.848-6.404 1.9-3.086 2.372-7.356 3.322-10.202 0.474-0.712 0.236-1.898 0.712-2.61 1.186-4.744 2.134-9.49 4.034-14.472 5.93-0.95 0.476-3.084 1.188-4.032 1.662-15.658 9.016-31.080 18.506-47.924 25.148-15.896-17.082-32.026-33.69-48.872-50.060-2.372-0.948-4.744-1.896-7.118-2.134-7.352 0-14.708-0.474-21.826 0.238-17.792 9.014-30.604 24.198-41.28 40.568 0 4.27 0.238 12.81 0.476 17.082l0.474 1.896c4.508 9.254 9.016 18.506 13.996 27.52 11.864 11.626 24.2 23.25 33.69 37.248-2.136 5.456-5.932 9.964-9.49 14.472-2.61 4.268-5.218 8.54-7.354 13.048-3.796 9.252-7.356 18.268-11.388 27.282-1.186 3.084-2.61 5.932-4.034 9.016 3.56 2.134 2.136 9.014-2.61 7.116-0.948 5.694-2.134 11.15-3.32 16.844-17.558 0.95-35.112 1.424-52.906 1.662-0.948 3.084-6.404 4.032-6.166 0-1.424 0.474-4.034 1.66-5.22 2.134-5.694 3.084-11.15 6.17-16.606 9.492-2.138 1.896-3.798 3.558-5.694 5.456-4.746 9.252-9.252 18.742-15.422 27.044 0 4.034 0.238 11.862 0.238 15.658 3.32 0.95 4.98 3.084 4.744 6.644l0.236 1.424c3.796 3.082 7.118 7.59 5.458 12.572 1.186 0.712 3.084 2.136 4.27 2.846 3.084 1.186 6.88 4.034 4.982 8.066 1.188 0.238 3.322 1.188 4.508 1.662 4.508 2.372 9.016 4.746 13.76 6.88 2.846 1.186 5.694 1.898 8.778 2.372 18.030 1.188 36.298 1.424 54.090 3.56l1.424 0.238c0.712 1.422 2.374 4.032 3.322 5.218 1.898 2.372 2.134 4.982 0.474 7.828 0.95 3.086 1.898 6.17 2.846 9.016 3.56 2.372 7.118 7.83 2.136 10.438 1.662 3.558 3.322 7.356 5.22 10.914 7.116 12.574 14.234 25.386 20.64 38.432 0.474 1.424 1.898 4.034 2.608 5.458-8.54 14.946-20.876 26.808-32.976 38.67-4.032 4.27-8.066 8.542-11.624 12.812-2.374 4.506-4.032 9.252-5.932 13.996 0 4.032 0 12.1 0 16.134 0.95 2.608 1.9 4.98 3.086 7.59 9.726 12.336 20.402 24.436 33.924 33.214 0.714 0.476 2.61 1.662 3.322 2.134 2.134-2.372 4.27-2.372 6.88-0.236 2.372 0 7.116 0 9.49 0 2.372-2.374 4.744-2.136 6.88 0.236l1.424-1.186c20.64-14.232 36.534-34.162 56.698-48.632 0.952-0.238 2.848-0.476 3.798-0.476 5.456 2.846 10.676 6.642 15.894 9.964 19.454 11.386 41.044 18.032 62.396 25.146 2.61-2.846 4.982-3.082 7.116-0.234 7.83 19.452 4.746 40.804 6.168 61.206 0.238 3.796 0.95 7.356 2.136 10.914 3.084 5.218 6.168 10.438 9.488 15.658 2.136 2.134 4.508 4.506 6.88 6.642 5.694 3.086 11.388 6.168 17.082 9.252zM337.594 421.428c-1.186-0.238-3.796-1.186-5.218-1.424-3.322 2.136-4.984 1.424-5.22-2.608-9.254-1.662-18.268-4.508-26.808-8.066-14.234 0.236-24.198-11.388-34.164-19.93-17.792-17.318-36.060-38.906-35.824-65.002-4.508 0.472-5.93-6.17-3.084-8.78-3.32-2.134-3.32-4.032 0-5.932-4.98-10.438-1.186-23.012-0.71-33.924-3.322-2.848-2.848-4.982 0.948-6.406 0.238-1.422 0.712-3.796 1.186-5.218-2.848-3.322-2.134-5.458 1.898-6.406 0.476-4.508 1.662-9.016 3.558-13.048l-1.186 1.66c3.56-14.71 11.864-27.756 22.54-38.196l0.948-1.66c4.746-4.982 9.964-9.492 15.42-13.998l1.424-1.186c10.2-11.624 23.488-18.504 37.958-21.828 3.084-1.186 6.408-1.896 9.728-2.134 0.948-4.27 3.322-4.744 6.404-1.898 1.424-0.474 3.798-0.948 5.22-1.186 1.66-3.796 3.796-4.034 6.406-0.948 10.912-3.086 22.538-0.948 33.688 0 2.61-3.086 4.744-2.61 6.168 1.186 7.356 0.712 14.708 2.372 21.588 4.746 31.316 8.538 57.888 32.976 70.936 62.63l-1.186-1.424c6.168 11.626 10.912 24.198 11.388 37.486 4.032 1.186 4.508 3.558 1.898 6.88 4.034-0.714 4.744 6.404 1.66 8.304 2.61 4.742 2.61 11.622 0 16.606 3.084 1.66 2.61 9.014-1.66 8.304l-0.712 4.032c4.032 2.372 3.084 10.438-1.662 10.914 3.086 1.896 2.136 9.252-2.372 8.304 1.662 11.86-6.166 22.536-11.624 32.264-15.658 23.724-38.196 45.788-67.376 50.294-5.932 2.374-12.336 3.796-18.744 4.032-0.948 4.272-3.082 4.984-6.404 2.136l-2.372 0.95c-1.662 3.794-3.796 4.032-6.406 0.95-6.644 2.134-13.996 2.134-20.404-0.714-0.472 3.558-7.352 4.272-7.828 0.238zM369.858 646.096c5.458-1.898 10.678-4.51 15.422-8.066 0.712-0.712 2.136-1.9 2.846-2.61-5.93 3.796-12.098 7.354-18.268 10.676zM1032 640.876v2.134-20.64c0 4.036 0 12.102 0 16.134v2.372zM313.158 626.406c3.796 4.506 8.304 8.3 13.048 11.624l-1.424-0.95c-2.372-2.136-4.744-4.508-6.88-6.642-1.186-1.188-3.558-3.084-4.744-4.032zM385.28 638.030c4.508-3.324 8.778-6.88 12.574-10.676l-0.712 0.474c-3.084 2.372-5.932 4.982-9.016 7.592-0.71 0.71-2.134 1.898-2.846 2.61zM547.078 619.76c-0.236 6.17 0.474 12.576 1.186 18.744-0.236-4.032-0.948-12.336-1.186-16.37v-2.374zM729.992 638.504c10.674-5.694 21.588-11.15 32.738-15.896-12.336 1.424-23.96 7.118-32.738 15.896zM313.158 626.406c1.186 0.948 3.558 2.844 4.744 4.032-3.32-5.22-6.404-10.44-9.488-15.658 1.422 4.032 2.846 7.828 4.744 11.626zM397.142 627.828l0.712-0.474c3.558-3.084 5.456-7.356 5.932-11.864-4.984 1.662-7.832 7.118-6.644 12.338zM547.078 622.134c8.066-11.15 17.32-21.826 29.418-28.47l-2.372 0.238c-13.522 2.136-23.486 13.050-27.046 25.858v2.374zM768.186 622.37c1.424 0 4.272 0 5.694 0v-1.422c-3.084-2.846-5.218-2.372-5.694 1.422zM773.88 622.37c3.324 0 6.88-0.236 10.204-0.71-1.662-3.558-7.832-4.27-10.204-0.712v1.422zM791.198 621.66c3.322 0.474 6.88 0.71 10.202 0.71v-1.422c-2.37-3.558-8.54-2.846-10.202 0.712zM801.4 622.37c1.424 0 4.272 0 5.694 0-0.712-3.794-2.608-4.268-5.694-1.422v1.422zM1005.192 596.038c9.014 8.54 17.794 17.556 26.808 26.332-5.22-11.86-15.66-20.402-26.808-26.332zM617.302 603.866c5.218 3.086 10.912 5.458 16.368 8.066 2.848-4.508 5.932-8.778 9.018-13.284-0.952 0.472-2.848 1.186-3.798 1.66-6.406 4.744-14.234 6.406-21.588 3.558zM895.822 562.586c16.846 15.66 32.266 32.74 49.11 48.398-12.338-18.506-27.994-34.4-45.314-48.636-0.948 0.238-2.846 0.238-3.796 0.238zM948.966 610.034c6.878-1.896 13.522-4.506 19.69-8.066-6.406 2.848-13.048 5.456-19.69 8.066zM300.11 542.66c4.032 20.164 3.796 40.804 6.168 61.206-1.422-20.402 1.662-41.754-6.168-61.206zM607.336 597.462c-4.744 4.982 3.56 9.49 6.88 4.506-2.134-1.896-4.268-3.558-6.88-4.506zM405.92 601.732c1.422-18.268 2.372-36.298 2.372-54.566v-1.662c-2.846 18.506-1.422 37.486-2.372 56.228zM974.588 598.648c2.134 4.032 8.302 1.66 7.352-2.61-2.844 0.236-5.218 0.948-7.352 2.61zM638.89 600.308c0.95-0.474 2.846-1.188 3.798-1.66l1.422-2.136-0.474-2.134c-3.086 0.71-4.746 2.608-4.746 5.93zM644.11 596.512c12.1-13.76 27.756-23.724 39.382-37.958-2.134 1.898-4.746 3.084-7.356 4.032-1.184 0.476-3.556 1.424-4.506 1.9-0.712 3.32-2.61 5.218-6.168 5.456-7.356 8.066-14.708 16.132-21.826 24.436l0.474 2.134zM986.924 595.564c4.982 0.474 9.964 0 14.946-1.424-4.746-3.796-11.15-2.848-14.946 1.424zM574.124 593.902l2.372-0.238c4.27-0.236 12.812-0.472 16.846-0.71-6.408-0.238-12.812 0.474-19.218 0.948zM665.462 569.942c3.558-0.238 5.456-2.136 6.168-5.456-3.322 0.234-5.456 2.134-6.168 5.456zM676.136 562.586c2.61-0.948 5.222-2.134 7.356-4.032-0.238-1.186-0.476-3.796-0.712-4.982-3.796 1.66-5.692 5.456-6.644 9.014zM895.822 562.586c0.95 0 2.848 0 3.796-0.238-0.948-2.608-2.61-4.742-4.744-6.404-1.66 2.61-1.424 4.744 0.948 6.642zM135.464 559.74c2.848 0 8.542 0 11.388 0l-0.948-1.898c-2.374 0-7.118 0-9.49 0l-0.95 1.898zM559.652 558.078c8.304 0.714 16.37 1.186 24.672 1.424-8.302-0.474-16.368-0.71-24.672-1.424zM129.534 558.078c1.424 0.476 4.506 1.186 5.93 1.662l0.95-1.898c-2.61-2.136-4.746-2.136-6.88 0.236zM145.904 557.842l0.948 1.898c1.424-0.476 4.27-1.424 5.932-1.662-2.136-2.372-4.508-2.61-6.88-0.236zM541.858 551.436c4.508 2.372 9.49 4.27 14.236 5.932-5.932-3.56-11.864-7.594-17.556-11.864 0.712 1.662 2.372 4.508 3.32 5.932zM584.324 559.502c18.032-7.354 32.74-21.826 38.434-41.042-10.914 15.42-23.724 29.418-38.434 41.042zM92.288 522.73c4.744 16.132 19.454 25.858 33.924 33.214-13.522-8.778-24.198-20.878-33.924-33.214zM154.208 556.892c21.588-9.964 37.72-27.52 55.040-43.414 0.236-1.186 1.186-4.032 1.658-5.218-20.164 14.47-36.058 34.4-56.698 48.632zM497.258 509.446c15.184 13.522 28.232 29.416 44.6 41.99-0.948-1.424-2.608-4.27-3.32-5.932-12.812-13.758-25.86-27.756-42.466-37.244l1.186 1.186zM681.594 551.912c3.796-2.372 1.186-8.542-3.32-7.356 0.472 2.61 1.66 5.218 3.32 7.356zM910.768 516.326c-5.694 10.436-9.726 21.588-13.046 32.976 5.218-10.44 10.2-20.878 14.47-31.554l-1.424-1.422zM408.292 547.166c3.56 0.474 5.22-1.186 5.22-4.506-1.424 0.71-4.032 2.134-5.22 2.844v1.662zM292.994 542.894c2.61 1.662 4.982 1.424 7.116-0.234-2.134-2.848-4.506-2.612-7.116 0.234zM429.168 539.1c6.644-1.898 13.288-4.034 19.692-6.406-6.642 2.134-13.048 4.272-19.692 6.406zM676.85 539.812c-1.898-6.88-4.508-13.76-6.88-20.64 2.134 6.88 4.744 13.76 6.88 20.64zM820.38 531.272c2.61 0 4.984-0.238 7.592-0.476 0.712-3.558 1.66-7.118 2.372-10.914-3.084 4.034-6.404 7.83-9.964 11.39zM753.24 527c1.186 3.558 5.22 4.272 8.304 3.796l-0.238-1.662c-2.372-2.134-4.98-2.846-8.066-2.134zM761.544 530.796c3.322 0.238 5.22-0.948 5.694-4.034-1.424 0.476-4.27 1.662-5.932 2.372l0.238 1.662zM807.806 526.526c0.712 3.084 2.61 4.27 6.17 3.322v-1.9c-1.424-0.236-4.746-1.186-6.17-1.422zM813.976 529.848c1.422 0.474 4.742 1.186 6.404 1.424-0.948-2.848-3.084-4.034-6.404-3.324v1.9zM769.848 526.762c11.862 0 23.724-0.236 35.586-0.236-11.862-0.238-23.724 0-35.586 0.236zM215.89 508.97c4.744 3.322 9.728 6.17 14.708 8.778-5.218-3.322-10.438-7.118-15.894-9.964l1.186 1.186zM480.652 517.274c5.456-2.848 11.15-5.22 16.606-7.828l-1.186-1.186c-5.458 2.37-10.44 5.928-15.42 9.014zM622.758 518.46c0.476-6.644 0.238-13.286 0-20.166 0 6.88 0 13.522 0 20.166zM912.192 517.748c2.374-4.508 2.136-9.254-0.71-14.234l-0.714 1.422c-1.658 3.796-1.658 7.594 0 11.39l1.424 1.422zM84.694 503.75c1.186 2.848 3.322 8.542 4.508 11.39 0-4.034 0-12.102 0-16.134-1.186 1.188-3.322 3.56-4.508 4.744zM665.462 505.886c-0.712 3.56 0.712 7.116 3.084 9.488 0.71-3.32 0.474-6.404-1.186-9.488h-1.898zM716.706 475.282c13.048 11.152 22.064 26.098 30.604 40.806-5.93-16.37-13.048-33.926-30.604-40.806zM209.248 513.478c2.844-0.712 4.982-2.372 6.642-4.508l-1.186-1.186c-0.95 0-2.846 0.238-3.798 0.476-0.472 1.186-1.422 4.032-1.658 5.218zM665.462 505.886h1.898c0.474-1.186 1.424-3.796 1.66-4.982l-0.712-1.898c-2.372 1.66-3.322 4.032-2.846 6.88zM883.248 475.994c11.152 7.828 19.216 18.506 27.52 28.942l0.714-1.422c-1.186-4.982-2.848-9.728-4.508-14.472-4.982-0.712-9.016-4.508-9.966-9.488-4.032-1.424-8.066-2.848-12.098-4.272l-1.662 0.712zM669.020 500.904c6.644-9.728 14.948-18.030 23.486-25.86-10.438 5.22-17.554 14.71-24.198 23.962l0.712 1.898zM571.516 437.56c15.18 21.588 36.772 38.434 51.242 60.734-7.354-23.486-27.758-38.67-43.652-56.226-2.61-1.424-5.456-2.61-7.59-4.508zM897.008 479.554c0.95 4.98 4.984 8.776 9.966 9.488-0.95-4.982-4.982-8.54-9.966-9.488zM843.866 486.906c4.272 0.476 7.83-2.846 8.066-7.118-4.27 0.238-6.88 3.56-8.066 7.118zM95.134 485.010c3.558-4.27 7.592-8.542 11.624-12.812-2.372 1.424-4.508 2.61-6.88 3.796-1.896 3.084-3.32 6.168-4.744 9.016zM853.356 479.554c3.086-0.238 7.594-0.952 8.066-4.984-3.794-1.424-6.642 2.136-8.066 4.984zM99.878 475.994c2.372-1.186 4.508-2.372 6.88-3.796 12.1-11.862 24.436-23.724 32.976-38.67-13.76 13.76-28.23 27.044-39.856 42.466zM697.49 472.198c3.558 3.796 8.304 4.032 14.234 0.71-4.272-2.372-9.964-4.032-14.234-0.71zM866.642 475.756c3.084 0.95 5.22-0.238 5.932-3.32-3.086-0.95-5.22 0.238-5.932 3.32zM874.944 472.674c2.374 2.134 5.222 3.082 8.304 3.32l1.662-0.712c-2.372-3.322-6.642-3.796-9.966-2.608zM571.516 437.56c2.134 1.898 4.98 3.084 7.59 4.508-1.424-3.56-2.848-7.828-6.642-9.726-0.238 1.422-0.714 3.794-0.948 5.218zM137.126 428.070c-6.406-13.046-13.524-25.858-20.64-38.432 6.168 13.048 13.284 25.858 20.64 38.432zM574.36 428.784c8.068-13.288 14.472-27.52 20.168-41.994-6.88 13.998-13.524 27.758-20.168 41.994zM337.594 421.428c0.476 4.034 7.356 3.32 7.828-0.238l-1.186-0.71c-1.422 0-4.032-0.238-5.456-0.476l-1.186 1.424zM345.422 421.19c6.408 2.848 13.76 2.848 20.404 0.714l1.188-1.188c-7.594 0-15.184 0-22.778-0.236l1.186 0.71zM365.826 421.904c2.61 3.082 4.744 2.844 6.406-0.95-1.424 0-4.032-0.238-5.218-0.238l-1.188 1.188zM327.156 417.396c0.236 4.032 1.898 4.744 5.22 2.608v-1.898c-1.424-0.238-4.034-0.474-5.22-0.71zM332.376 420.004c1.422 0.238 4.032 1.186 5.218 1.424l1.186-1.424c-1.896-1.66-4.032-2.136-6.404-1.898v1.898zM374.604 420.004c3.322 2.848 5.456 2.136 6.404-2.136-2.372-0.236-4.506 0.476-6.404 2.136zM399.752 413.836c29.18-4.506 51.718-26.57 67.376-50.294 5.458-9.728 13.286-20.404 11.624-32.264l-0.238-1.662c-4.506 13.522-11.386 25.86-17.554 38.67-1.186 3.796-4.744 6.168-8.304 7.83-4.982 5.456-10.2 10.674-15.422 15.894-0.71 3.322-2.846 4.982-6.166 5.456-10.202 5.694-20.64 11.388-31.316 16.37zM266.184 389.4c9.966 8.542 19.93 20.166 34.164 19.93-33.45-17.32-60.736-48.16-69.988-84.932-0.236 26.096 18.032 47.684 35.824 65.002zM431.068 397.466c3.32-0.474 5.456-2.134 6.166-5.456-3.556 0-5.456 1.898-6.166 5.456zM602.592 366.15c-2.136 5.456-4.27 10.914-6.404 16.608 2.372-5.456 4.268-11.152 6.404-16.608zM111.266 378.724c4.982-2.608 1.424-8.066-2.136-10.438 0 3.558 0.238 7.354 2.136 10.438zM452.656 376.116c3.56-1.662 7.118-4.034 8.304-7.83-4.982-0.95-7.592 3.796-8.304 7.83zM104.148 352.628c0.476 1.662 1.662 4.982 2.136 6.642 1.66-2.846 1.424-5.456-0.474-7.828l-1.662 1.186zM606.388 356.662c0.238-1.424 0.476-4.51 0.476-6.168l-1.662-0.714c-1.898 2.848-1.424 4.982 1.186 6.882zM102.488 346.224c-1.186 2.608-0.712 4.742 1.66 6.404l1.662-1.186c-0.948-1.186-2.61-3.796-3.322-5.218zM606.864 350.494c1.186-0.95 3.32-2.848 4.508-3.798l-1.424-0.472c-1.188 0.71-3.56 2.608-4.746 3.556l1.662 0.714zM611.372 346.696c18.266 0.95 36.296-0.472 54.564-0.71l-1.422-1.424c-18.268 0.238-36.538 0.476-54.566 1.662l1.424 0.472zM46.974 342.426c18.030 2.136 36.060 2.136 54.090 3.56-17.792-2.136-36.060-2.372-54.090-3.56zM664.514 344.562l1.422 1.424c1.662-0.476 4.506-1.186 6.168-1.662-2.61-2.372-4.982-2.134-7.59 0.238zM675.664 342.426c5.218-2.61 10.438-4.982 15.894-7.354 0.238-0.948 0.476-2.608 0.476-3.56-5.458 3.798-10.914 7.356-16.37 10.914zM25.148 335.072c4.27 1.662 8.54 3.558 13.048 4.982-4.744-2.134-9.252-4.508-13.76-6.88l0.712 1.898zM18.506 332.464c1.422 2.37 3.796 3.32 6.642 2.608l-0.712-1.898c-1.186-0.474-3.32-1.424-4.508-1.662l-1.422 0.952zM691.558 335.072c5.22-0.712 8.778-4.746 10.202-9.726v0.238c-3.56 1.186-6.88 3.32-9.726 5.928 0 0.952-0.238 2.612-0.476 3.56zM478.752 331.278c4.508 0.948 5.458-6.408 2.372-8.304-0.948 2.134-1.896 4.506-2.61 6.642l0.238 1.662zM14.47 325.108c0.952 2.61 2.374 4.982 4.036 7.356l1.422-0.952c1.898-4.032-1.898-6.88-4.982-8.066l-0.476 1.662zM9.252 321.312c0.476 2.848 2.374 4.272 5.218 3.796l0.476-1.662c-1.186-0.71-3.084-2.134-4.27-2.846l-1.424 0.712zM227.276 315.618c-2.846 2.61-1.424 9.252 3.084 8.78-0.474-3.324-0.948-6.408-1.66-9.49l-1.424 0.71zM701.76 325.584v-0.238c3.796-7.594 7.354-15.66 9.964-23.726-3.558 7.83-7.354 15.66-9.964 23.964zM481.124 322.974c4.746-0.476 5.694-8.542 1.662-10.914-0.712 3.558-1.424 7.354-1.662 10.914zM9.252 321.312l1.424-0.712c1.66-4.982-1.662-9.49-5.458-12.572 0.238 4.744 1.186 9.252 4.034 13.284zM227.276 309.686c-3.32 1.9-3.32 3.798 0 5.932l1.424-0.71c-0.236-0.95-0.236-2.848-0.236-3.798l-1.188-1.424zM227.276 309.686l1.188 1.424c-0.95-12.098-0.712-24.436-0.712-36.534l-1.186 1.186c-0.476 10.912-4.27 23.486 0.71 33.924zM483.498 308.028c4.27 0.71 4.744-6.644 1.66-8.304h-1.186c-0.236 2.61-0.474 5.456-0.474 8.304zM0.238 301.858c1.186 1.186 3.558 3.558 4.744 4.746 0.236-3.56-1.424-5.694-4.744-6.644v1.898zM0 303.758l0.238-1.9v-1.898c0-3.796-0.238-11.624-0.238-15.658v-2.136 21.592zM711.724 301.62c1.422-1.186 3.796-3.556 5.22-4.508-1.188-2.844-3.084-8.538-4.034-11.386-0.236 3.796-0.95 11.862-1.186 15.894zM483.972 299.724h1.186c2.61-4.984 2.61-11.864 0-16.606h-1.186c0 4.032 0 12.336 0 16.606zM0 284.302c6.17-8.302 10.676-17.792 15.422-27.044-1.9 1.896-3.56 3.558-5.458 5.456-4.982 6.406-7.116 14.234-9.964 21.588zM483.972 283.118h1.186c3.084-1.9 2.374-9.018-1.66-8.304 0 2.608 0.238 5.456 0.474 8.304zM226.566 275.762l1.186-1.186c0-1.424-0.238-4.034-0.238-5.22-3.796 1.424-4.27 3.558-0.948 6.406zM481.6 267.934c-0.238 2.608 0.238 4.744 1.898 6.88 2.61-3.322 2.134-5.694-1.898-6.88zM677.56 245.158c11.626 8.066 21.826 18.504 31.080 29.18-1.424-3.32-2.846-6.404-4.032-9.726-3.322-1.424-4.508-3.796-3.322-6.88-8.066-4.034-15.896-8.304-23.726-12.574zM228.7 264.138c1.424-1.662 2.136-4.034 1.898-6.406-4.032 0.948-4.746 3.084-1.898 6.406zM701.286 257.732c-1.186 3.084 0 5.456 3.322 6.88 0.472-3.32-0.476-5.458-3.322-6.88zM9.964 262.714c1.898-1.898 3.558-3.56 5.458-5.456 1.896-1.898 3.556-3.56 5.694-5.456l1.186-1.188c-4.508 3.56-8.78 7.592-12.338 12.1zM21.116 251.802c5.456-3.322 10.912-6.408 16.606-9.492-5.458 2.374-10.678 4.746-15.42 8.304l-1.186 1.188zM232.97 246.344l1.186-1.66c6.17-10.914 12.574-21.59 18.982-32.266 0.472-0.948 1.658-3.32 2.372-4.27-10.676 10.44-18.98 23.486-22.54 38.196zM667.834 241.6c-1.186 4.032 5.22 5.456 5.932 1.422-1.424-0.474-4.51-1.186-5.932-1.422zM42.942 240.176c-0.238 4.032 5.218 3.084 6.166 0l-1.66-0.948c-1.186 0.236-3.32 0.71-4.506 0.948zM605.44 235.668c3.084 3.084 6.404 7.354 11.388 7.118 17.080 0.712 33.926-0.238 51.006-1.186-20.404-0.476-40.806-3.086-61.208-5.694l-1.186-0.238zM47.448 239.228l1.66 0.948c17.794-0.238 35.348-0.712 52.906-1.662-18.268 0-36.298 0.238-54.566 0.714zM604.964 225.704c-1.422 3.084-2.608 7.592 0.476 9.964l1.186 0.238c0.71-3.558 0.238-7.356-0.476-10.914l-1.186 0.712zM470.212 230.448l1.186 1.424c-13.048-29.654-39.62-54.092-70.936-62.63 28.47 13.522 52.194 35.11 69.75 61.206zM603.542 216.926c-2.372 2.61-2.134 7.356 1.422 8.778l1.186-0.712c-0.236-2.846-0.948-5.456-2.608-8.066zM105.334 221.67c4.746 1.898 6.17-4.982 2.61-7.116-1.424 2.134-2.372 4.744-2.61 7.116zM253.138 212.418c7.59-7.118 14.946-14.708 22.060-22.536l-1.896 1.422-1.424 1.186c-5.218 4.506-10.44 9.252-15.42 13.998l-0.948 1.66c-0.714 0.95-1.9 3.322-2.372 4.27zM590.494 185.374c2.61 8.302 5.694 16.606 9.728 24.434-3.086-8.302-6.17-16.368-9.728-24.434zM256.458 206.488c4.98-4.746 10.202-9.492 15.42-13.998-5.456 4.506-10.674 9.016-15.42 13.998zM111.978 205.538c4.032-9.014 7.592-18.030 11.388-27.282-4.508 8.778-8.066 18.030-11.388 27.282zM273.302 191.304l1.896-1.422c11.39-7.832 23.964-13.998 36.062-20.406-14.47 3.324-27.758 10.204-37.958 21.828zM570.328 151.21c4.982 7.83 10.202 15.658 14.948 23.726-3.56-7.832-7.356-15.422-11.39-22.776 18.032-17.794 37.010-35.588 47.686-59.074-14.708 21.352-33.214 39.856-51.244 58.124zM320.988 167.342c2.372 0.238 4.508-0.474 6.404-1.898-3.082-2.846-5.456-2.372-6.404 1.898zM130.72 165.208c3.558-4.508 7.354-9.016 9.49-14.472l-1.424-1.186c-2.61 5.218-5.218 10.438-8.066 15.658zM332.612 164.258c1.186 0 4.034 0.238 5.22 0.238l1.186-1.186c-2.61-3.086-4.746-2.848-6.406 0.948zM337.832 164.496c12.098 0 23.96 0 35.824 0.238l-0.95-1.424c-11.15-0.948-22.776-3.086-33.688 0l-1.186 1.186zM373.656 164.734c1.424 0 4.032 0 5.218-0.238-1.424-3.796-3.558-4.272-6.168-1.186l0.95 1.424zM138.786 149.55l1.424 1.186c-9.49-13.998-21.826-25.622-33.69-37.248-0.948-1.186-3.32-3.32-4.506-4.506 9.728 15.656 23.724 27.756 36.772 40.568zM102.014 108.982c1.186 1.186 3.558 3.32 4.506 4.506-4.98-9.014-9.488-18.266-13.996-27.52 2.61 7.83 5.458 15.896 9.49 23.014zM622.52 91.662c0.714-1.424 2.136-4.508 2.848-6.166l-1.66-0.952c-2.374 1.9-2.846 4.272-1.188 7.118zM625.368 85.496c1.422-4.272 1.422-8.542 0.236-13.288l-1.184 0.95c-2.136 3.558-2.372 7.354-0.712 11.386l1.66 0.952zM91.574 64.38c-0.238 6.642 0 13.284 0.476 19.692-0.238-4.272-0.476-12.812-0.476-17.082v-2.61zM495.36 77.192c8.304 4.032 14.708-4.272 20.164-9.254 14.236-14.708 29.894-27.994 46.026-40.33l1.424-1.186c-25.386 9.962-42.704 31.552-61.21 50.532-17.554-10.202-36.058-18.742-54.802-26.334 15.658 9.49 31.316 19.93 48.398 26.572zM210.67 78.378c16.844-6.642 32.266-16.132 47.924-25.148-15.422 4.982-29.894 12.81-44.364 20.64-13.76-11.624-26.098-24.674-38.91-37.248-4.27-3.32-8.776-5.93-13.522-8.304 16.846 16.37 32.976 32.978 48.872 50.060zM175.32 36.622c12.812 12.574 25.15 25.624 38.91 37.248-11.152-13.998-24.198-26.808-38.91-37.248zM622.758 62.718c-1.896 3.322-2.372 8.542 1.662 10.44l1.184-0.95c0-3.32-0.948-6.642-2.846-9.49zM91.574 66.99c10.676-16.37 23.488-31.554 41.28-40.568l-2.608 0.474c-18.742 3.322-33.926 19.454-38.672 37.484v2.61zM587.41 28.794c12.812 9.252 24.434 20.164 34.4 32.264-6.406-14.946-19.454-25.622-34.4-32.264zM262.626 51.568c4.982-1.896 9.728-3.796 14.472-5.93-4.744 1.898-9.49 4.034-14.472 5.93zM433.914 44.452c-2.136 6.406 6.168 8.778 9.728 4.034-2.848-1.9-6.17-3.56-9.728-4.034zM279.708 44.452c2.846 2.848 7.116 1.898 10.202-0.474v-1.662c-3.56-0.472-7.118 0.238-10.202 2.136zM289.91 43.978c2.608 0.948 4.744 0.236 6.404-1.9l-1.424-1.422c-1.422 0.474-3.794 1.188-4.98 1.66v1.662zM413.986 42.316c0.236 4.034 6.642 2.848 6.168-0.71-1.422 0.238-4.508 0.472-6.168 0.71zM294.89 40.656l1.424 1.422c1.424-0.71 4.27-2.372 5.694-3.082-3.084-1.662-5.456-0.95-7.118 1.66zM303.67 39.47c1.186 0.474 3.558 1.186 4.506 1.422 0-21.112-0.712-42.466 0.238-63.578l0.474-2.612c-3.084 21.59-3.558 43.178-5.218 64.768zM408.292-21.266c-0.95 21.354-1.66 43.18 5.694 63.582-2.848-21.588-3.796-43.414-4.982-65.002l-0.712 1.42zM561.55 27.608c2.372 1.896 4.744 1.896 6.88-0.476l-0.95-1.66c-1.186 0.238-3.558 0.712-4.506 0.95l-1.424 1.186zM577.92 26.66c-0.238 4.032 5.694 3.794 5.218-0.238-0.948-0.476-2.846-1.186-4.032-1.424l-1.186 1.662zM130.246 26.896l2.608-0.474c7.118-0.712 14.474-0.238 21.826-0.238-8.066 0-16.368 0.238-24.434 0.712zM567.48 25.472l0.95 1.66c2.372-0.236 7.118-0.472 9.49-0.472l1.186-1.662c-2.848 0-8.778 0.238-11.626 0.474zM406.87-30.28c-2.374 2.61-2.374 7.828 1.422 9.014l0.712-1.42c0.238-2.848-0.476-5.222-2.134-7.594zM308.414-22.686c3.322-6.88 7.116-13.526 10.912-19.93-1.186 0.238-3.32 0.476-4.506 0.712-2.374 5.458-4.984 10.914-5.932 16.606l-0.474 2.612zM370.334-60.172c13.284 7.354 25.148 17.318 35.586 28.47-1.898-3.322-3.558-6.644-5.694-9.966-3.32-4.27-7.116-8.304-10.914-12.336-5.456-3.32-11.386-5.456-17.318-7.59l-1.66 1.422zM314.82-41.904c1.186-0.236 3.32-0.474 4.506-0.712l1.424-2.134-0.238-1.898c-2.844 0.474-4.744 1.898-5.692 4.744zM389.312-54.004c3.798 4.032 7.594 8.066 10.914 12.336-2.848-4.744-6.406-9.014-10.914-12.336zM320.75-44.75c7.118-6.17 15.184-11.626 22.776-17.32-7.83 4.746-15.422 10.202-23.014 15.422l0.238 1.898zM348.982-63.256c4.506 4.982 9.964 5.456 16.37 1.898l-0.238-1.898h-16.132zM365.352-61.358c1.186 0.238 3.796 0.95 4.982 1.186l1.66-1.422-0.948-1.662h-5.932l0.238 1.898z" horiz-adv-x="1032" />
<glyph unicode="&#xe010;" d="M736 960h-448c-52.8 0-96-43.2-96-96v-832c0-52.8 43.2-96 96-96h448c52.8 0 96 43.2 96 96v832c0 52.8-43.2 96-96 96zM384 912h256v-32h-256v32zM512 0c-35.346 0-64 28.654-64 64s28.654 64 64 64 64-28.654 64-64-28.654-64-64-64zM768 192h-512v640h512v-640z" />
<glyph unicode="&#xe011;" d="M819.754 530.068h-225.688v225.688c0 11.326-9.172 20.516-20.518 20.516h-123.104c-11.344 0-20.516-9.19-20.516-20.516v-225.688h-225.688c-11.344 0-20.516-9.192-20.516-20.516v-123.104c0-11.344 9.172-20.518 20.516-20.518h225.688v-225.688c0-11.344 9.172-20.518 20.516-20.518h123.104c11.344 0 20.518 9.172 20.518 20.518v225.688h225.688c11.344 0 20.518 9.172 20.518 20.518v123.104c0 11.326-9.172 20.516-20.518 20.516z" />
<glyph unicode="&#xe013;" d="M310.722 317.768l337.286 337.264 72.928-72.99-337.284-337.224zM465.264 267.468c-3.174-25.19-13.926-49.582-33.198-68.936l-89.662-89.64c-46.224-46.202-121.364-46.202-167.588 0-46.244 46.244-46.244 121.364 0 167.67l89.64 89.64c19.292 19.292 43.664 30.126 68.936 33.24l98.344 98.344c-82.76 31.928-180.224 14.704-246.988-51.958l-89.64-89.64c-90.072-90.072-90.072-236.79 0.020-326.86 90.072-90.174 236.77-90.174 326.86 0l89.56 89.64c66.764 66.662 83.906 164.126 51.978 246.886l-98.262-98.386zM566.456 632.586c3.174 25.17 13.926 49.582 33.24 68.956l89.64 89.64c46.202 46.202 121.344 46.202 167.568-0.020 46.224-46.224 46.224-121.364 0-167.588l-89.64-89.64c-19.292-19.312-43.664-30.126-68.936-33.218l-98.344-98.366c82.76-31.948 180.224-14.704 246.988 51.958l89.64 89.64c90.050 90.152 90.050 236.79-0.102 326.932-90.072 90.174-236.77 90.174-326.84 0l-89.64-89.64c-66.764-66.662-83.886-164.148-51.978-246.886l98.404 98.232z" />
<glyph unicode="&#xe014;" d="M903.432 760.57l-142.864 142.862c-31.112 31.112-92.568 56.568-136.568 56.568h-480c-44 0-80-36-80-80v-864c0-44 36-80 80-80h736c44 0 80 36 80 80v608c0 44-25.456 105.458-56.568 136.57zM858.178 715.314c3.13-3.13 6.25-6.974 9.28-11.314h-163.458v163.456c4.34-3.030 8.184-6.15 11.314-9.28l142.864-142.862zM896 16c0-8.672-7.328-16-16-16h-736c-8.672 0-16 7.328-16 16v864c0 8.672 7.328 16 16 16h480c4.832 0 10.254-0.61 16-1.704v-254.296h254.296c1.094-5.746 1.704-11.166 1.704-16v-608z" />
<glyph unicode="&#xe015;" d="M486.88 960h49.602c0-162.434 0-325.082 0-487.518 162.436 0 325.084 0 487.518 0v-48.964c-162.434 0-325.082 0-487.518 0 0-162.436 0-325.084 0-487.518h-48.964c0 67.486 0.426 135.186-0.426 202.672 1.064 94.948 0.212 189.896 0.426 284.846-162.436 0-325.084 0-487.518 0v50.028h1.704c162.008-2.342 323.804-0.638 485.814-1.064-0.214 162.010 0.638 323.806-0.638 485.602v1.916zM485.388 883.36c-0.212 24.908 0.426 49.816 1.492 74.724 1.276-161.796 0.424-323.592 0.638-485.602-162.010 0.426-323.806-1.278-485.814 1.064 161.156 2.556 322.528 0.214 483.684 1.066 0 136.248 0 272.498 0 408.748zM485.388-64c0.426 67.486-1.49 135.186 1.704 202.672 0.852-67.486 0.426-135.186 0.426-202.672h-2.13z" />
<glyph unicode="&#xe016;" d="M819.84 803.414c23.040 39.254 92.16 11.094 59.968-32.64-212.906-223.36-434.986-438.4-650.88-658.986-21.546-13.014-56.32-68.054-78.506-26.88-42.666 22.166 11.306 59.094 25.814 80.426 215.23 212.032 427.924 426.666 643.604 638.080zM0 490.666c143.574 217.814 427.52 334.508 680.96 258.774-25.578-26.026-51.414-51.84-76.992-77.654-197.782 40.534-382.314-74.452-507.754-217.172 48.64-49.066 100.48-94.72 154.666-137.622-24.96-24.726-49.706-49.686-74.666-74.88-64 51.862-128 105.194-176.214 173.014v75.54zM782.506 587.306c24.96 24.746 49.706 49.28 74.454 74.026 62.294-49.92 122.88-103.254 167.040-170.454v-77.44c-153.174-202.238-421.12-349.652-676.906-261.972 26.026 27.114 52.694 53.782 79.146 80.64 196.906-48.448 373.974 89.6 501.76 223.146-45.674 47.148-94.698 90.454-145.494 132.054zM352.64 421.974c-22.614 115.414 82.134 212.886 194.582 198.614-59.968-70.828-127.596-134.402-194.582-198.614zM497.706 298.454c55.466 63.36 115.2 123.094 179.2 177.494-1.898-97.708-80-180.054-179.2-177.494z" />
<glyph unicode="&#xe017;" d="M960 179.264l-268.992 268.736 268.992 268.736-179.264 179.264-268.736-268.864-268.864 268.864-179.136-179.264 268.736-268.736-268.736-268.736 179.136-179.264 268.864 268.864 268.736-268.864z" />
<glyph unicode="&#xe018;" d="M971.022 521.644h-73.45c-9.554 45.93-27.766 88.534-52.87 126.27l51.502 51.586c28.26 28.266 28.26 73.99 0 102.16-28.096 28.34-73.87 28.34-102.166 0l-51.592-51.578c-37.916 25.068-80.926 43.398-127.032 52.796l-0.002 71.63c0 39.988-32.38 72.286-72.234 72.286-40.022 0-72.288-32.298-72.288-72.286v-71.368c-46.672-9.276-90.026-27.602-128.312-53.004l-49.536 49.55c-28.258 28.312-73.984 28.312-102.218 0-28.186-28.216-28.186-73.94 0.088-102.22l49.336-49.34c-25.638-38.524-44.064-82.252-53.544-129.268h-68.662c-40.022 0-72.288-32.342-72.288-72.286 0-39.87 32.29-72.198 72.288-72.198l68.992 0.002c9.556-47.144 28.348-90.94 54.29-129.388l-48.46-48.512c-28.312-28.296-28.312-73.946 0-102.168 28.148-28.184 73.984-28.258 102.22 0l49.294 49.348c38.538-25.308 82.296-43.276 129.312-52.34v-69.864c0-40.022 32.38-72.286 72.234-72.286 40.022 0 72.286 32.288 72.286 72.286v71.208c46.344 9.884 89.408 28.424 127.324 54.112l50.5-50.502c28.224-28.348 73.986-28.348 102.258 0 28.148 28.148 28.296 73.87 0 102.092l-51.704 51.628c24.85 38.106 42.606 80.966 51.704 127.032h72.778c40.022 0 72.286 32.342 72.286 72.25-0.048 39.994-32.314 72.372-72.334 72.372zM723.736 447.414c0-100.058-81.144-181.314-181.346-181.314-100.088 0-181.27 81.258-181.27 181.314 0 100.172 81.182 181.4 181.27 181.4 100.14 0.024 181.346-81.228 181.346-181.4zM1660.194 643.968h-48.968c-6.362 30.594-18.54 59.022-35.294 84.166l34.368 34.37c18.832 18.874 18.832 49.34 0 68.202-18.742 18.832-49.208 18.832-68.076 0l-34.418-34.412c-25.32 16.7-53.962 28.962-84.704 35.204v47.71c0 26.72-21.62 48.184-48.184 48.184-26.636 0-48.184-21.486-48.184-48.184v-47.546c-31.098-6.24-60.016-18.458-85.504-35.326l-32.998 32.97c-18.832 18.906-49.298 18.906-68.204 0-18.78-18.748-18.78-49.294 0.074-68.13l32.926-32.924c-17.122-25.638-29.464-54.708-35.712-86.124h-45.798c-26.652 0-48.182-21.54-48.182-48.176 0-26.644 21.53-48.182 48.182-48.182h45.976c6.324-31.422 18.908-60.594 36.246-86.252l-32.344-32.372c-18.832-18.832-18.832-49.222 0-68.040 18.744-18.832 49.262-18.832 68.204 0l32.874 32.838c25.688-16.828 54.786-28.808 86.2-34.878v-46.546c0-26.652 21.53-48.184 48.13-48.184 26.688 0 48.166 21.532 48.166 48.184v47.474c30.96 6.564 59.614 18.96 84.92 36.040l33.634-33.632c18.908-18.832 49.374-18.832 68.204 0 18.754 18.742 18.832 49.208 0 68.038l-34.418 34.418c16.498 25.398 28.424 53.954 34.418 84.704h48.512c26.726 0 48.182 21.54 48.182 48.176-0.032 26.668-21.502 48.23-48.228 48.23zM1495.354 594.554c0-66.794-54.166-120.956-120.95-120.956-66.708 0-120.874 54.162-120.874 120.956 0 66.708 54.166 120.872 120.874 120.872 66.778-0.002 120.95-54.166 120.95-120.872z" horiz-adv-x="1754" />
<glyph unicode="&#xe019;" d="M410.462 957.338c58.074 0 103.834-4.198 137.216-12.532 33.434-8.436 60.020-17.484 79.706-27.302 14.772-7.872 29.196-17.69 43.61-29.504 14.208-11.814 27.302-26.586 39.066-44.326 11.764-17.69 21.12-38.348 28.122-61.964 6.796-23.564 10.33-50.714 10.33-81.088 0-28.582-3.020-54.4-8.948-77.504-5.824-23.104-13.798-43.968-23.616-62.682-9.868-18.714-20.404-34.97-31.692-48.716-11.252-13.85-22.336-25.1-33.126-33.946-22.644-19.636-46.836-35.43-72.346-47.194-25.562-11.814-51.174-20.66-76.736-26.586-25.51-5.978-50.406-9.612-74.444-11.098-24.23-1.434-46.068-2.252-65.754-2.252h-76.684v-88.448h442.65v-56.090l-442.756 0.026v-231.654l154.906-26.534v-54.604l-433.702-0.002v54.604l141.67 26.534v231.654l-141.67 0.002v56.090h141.67v88.448l-141.67-0.014v56.090h141.67v429.402l-141.67 26.584v54.606h404.198zM354.488 446.796c11.764 0 25.972 0.564 42.74 1.484 16.818 0.974 34.15 3.688 52.402 8.078 18.202 4.442 36.352 11.098 54.554 19.942 18.15 8.896 34.15 20.66 47.962 35.43 7.924 8.844 17.946 25.1 30.374 48.716 12.172 23.564 18.356 57.972 18.356 103.27 0 50.15-8.128 89.78-24.332 118.772-16.256 28.992-34.202 51.38-53.94 67.174-22.644 17.69-49.946 30.682-81.908 39.066-31.86 8.334-67.034 12.584-105.434 12.584h-50.202v-454.516h69.428z" horiz-adv-x="742" />
<glyph unicode="&#xe01a;" d="M355.68 960h6.098c25.41-3.050 51.836-7.114 74.45-20.328 45.738-22.868 79.024-68.86 86.138-119.424 4.574-33.794 2.542-67.844 3.050-101.638 64.286 0 128.57 0 192.856 0 0-259.938 0-520.13 0-780.070-161.094 0.256-321.936-0.254-482.778 0.256-83.852 0.254-164.908 49.040-205.308 122.218-16.77 28.968-25.664 62-31 95.032v562.564c65.048 0 130.096-0.508 195.144 0.762 1.016 35.32-1.524 70.894 3.050 105.958 5.844 39.638 29.982 74.704 61.236 98.842 26.934 22.87 62.508 32.524 97.064 35.828zM287.838 813.642c-6.608-26.172-4.066-53.36-4.32-79.786-7.116-11.434 3.302-14.992 10.164-15.246 46.752-1.016 93.506 0.508 140.006 0 0 29.984 1.27 59.966-1.526 89.95-5.844 30.492-32.778 54.884-63.522 58.696-35.32 4.574-71.148-19.566-80.802-53.614zM90.66 627.136c0-86.392 0-172.784 0-258.922 24.392 16.262 49.802 32.778 78.77 40.402 67.588 20.836 145.088 10.418 203.274-30.492 74.196-48.024 117.392-141.022 104.688-228.684-4.32-43.706-23.378-84.106-48.532-119.426 66.826 0 133.654 0 200.48 0 0 198.956 0 398.166 0 597.122-179.644 0-359.036 0-538.68 0z" horiz-adv-x="720" />
<glyph unicode="&#xe01b;" d="M512 960c-176.732 0-320-143.268-320-320 0-320 320-704 320-704s320 384 320 704c0 176.732-143.27 320-320 320zM512 448c-106.040 0-192 85.96-192 192s85.96 192 192 192 192-85.96 192-192-85.96-192-192-192z" />
<glyph unicode="&#xe600;" d="M381.998 764.996c45.412 39.624 105.516 61.884 166.066 60.55 69.010 0.444 137.128-31.166 182.984-82.81 42.74-46.748 65.892-110.86 63.666-174.080-1.78-77.914-42.74-153.6-106.852-197.678-50.754-36.062-114.866-50.31-176.306-43.63 1.336-62.33-21.816-124.662-63.222-171.408-53.87-62.776-139.798-95.722-221.718-85.038-57.878 6.678-113.084 34.726-153.156 76.576-44.966 46.748-70.79 111.304-70.79 175.86 0 68.118 28.048 135.79 77.468 182.538 55.652 55.206 138.016 81.476 215.040 69.010-0.444 72.126 32.056 143.36 86.818 190.108zM520.458 737.836c-89.044-11.576-156.716-105.962-135.346-194.116 47.192-28.048 85.038-70.344 106.852-120.654 27.158-13.356 61.44-12.020 91.27-6.232 75.242 16.918 131.338 92.606 125.106 169.628-3.116 49.42-30.274 97.058-71.68 124.662-33.39 23.152-75.688 32.946-116.202 26.712z" horiz-adv-x="798" />
<glyph unicode="&#xe601;" d="M565.37 951.318c2.554 1.788 4.342 6.894 8.172 5.364 30.644-30.9 61.288-61.542 92.186-92.186 6.894-1.278 14.044 0.51 20.94-0.254 63.84-0.51 126.658-27.834 170.582-73.8 44.688-46.22 69.714-110.826 67.16-175.178 0.254-3.574-1.788-8.426 1.532-11.236 31.154-31.154 62.564-62.564 93.718-93.718l1.788-0.766c-23.494-21.962-45.966-45.454-68.948-68.182-167.774-167.516-335.29-335.544-503.062-503.318-33.198 31.664-64.862 64.862-97.802 97.038-56.18-3.576-113.892 13.024-159.090 46.986-49.028 36.26-83.504 91.418-93.972 151.428-3.32 18.898-4.086 38.304-3.32 57.456-0.766 0.766-1.788 2.298-2.554 3.32-28.090 28.090-56.18 56.18-84.27 84.27-2.554 2.554-4.852 5.874-8.426 7.404v1.020c0.766 0.51 2.044 1.278 2.81 1.788 187.436 187.436 375.126 374.87 562.562 562.562zM570.222 826.446c-107.764-108.274-216.29-216.292-324.31-324.566-0.766-1.022-2.298-3.064-3.064-4.086 18.132 9.448 38.56 13.79 58.478 17.11 60.522 8.938 124.36-6.13 174.412-41.88 53.116-37.538 90.144-97.036 99.336-161.644 6.384-46.476 0.51-95.504-20.684-137.64 6.13 4.596 11.236 10.47 16.6 15.832 106.74 106.486 212.972 213.226 319.712 319.456-20.428 21.706-42.134 42.39-63.074 63.584-1.278 7.15 2.044 14.812 2.808 22.216 8.938 46.476-5.364 96.526-38.304 130.744-29.11 31.666-72.524 49.028-115.678 46.988-14.556-0.254-28.6-4.342-43.156-5.874-19.664 20.174-39.836 39.836-59.754 60.010-0.766 0-2.298 0-3.32-0.254zM723.184 688.806c17.876 4.086 36.772-11.49 35.75-29.878 0.51-16.6-14.812-31.408-31.408-30.132-16.342 0.254-30.388 15.832-28.856 32.176 0.51 13.534 11.236 25.536 24.514 27.834z" horiz-adv-x="1022" />
<glyph unicode="&#xe602;" d="M510.012 960h1.988c9.942-8.948 19.884-18.89 28.832-28.832-160.062-161.056-323.108-321.118-482.176-483.168 162.050-160.062 322.112-322.114 483.17-482.174-9.942-9.942-18.89-18.89-25.85-29.826h-5.964c-168.016 171.992-339.014 341.996-510.012 511.006v1.988c170.004 170.004 341.002 340.008 510.012 511.006z" horiz-adv-x="548" />
<glyph unicode="&#xe603;" d="M0.994 931.168c8.948 9.942 18.888 18.89 28.83 28.832 150.12-148.132 298.252-298.252 448.372-447.38 21.872-21.872 41.754-45.732 68.598-62.632v-2.984c-8.948-5.966-16.9-12.924-24.854-19.884-164.038-161.056-324.1-327.082-489.134-486.15l6.96-4.972h-15.908c-4.972 5.966-13.918 17.894-17.894 23.86l-5.964-3.976v8.948c162.050 161.056 324.1 322.112 484.164 484.164-162.050 160.062-322.112 322.112-483.168 482.176z" horiz-adv-x="548" />
<glyph unicode="&#xe604;" d="M254.002-57.6c-68.404 0-132.454 28.98-178.74 75.316-89.6 89.6-114.638 246.068 11.008 371.712 73.678 73.574 368.588 368.486 515.788 515.686 52.274 52.274 118.732 72.448 182.426 55.346 62.514-16.69 113.818-67.942 130.56-130.508 17.050-63.692-3.174-130.202-55.398-182.426l-493.158-493.21c-28.16-28.16-59.954-44.85-91.954-48.178-31.642-3.328-61.85 6.86-83.046 28.006-38.4 38.35-43.826 110.54 19.968 174.284l346.368 346.47c14.234 14.182 37.326 14.182 51.558 0 14.234-14.234 14.234-37.326 0-51.558l-346.418-346.418c-29.952-29.952-32.716-58.572-19.968-71.322 5.58-5.53 14.080-8.090 23.86-7.066 15.002 1.586 32.102 11.316 48.076 27.29l493.158 493.158c33.842 33.844 46.798 73.626 36.506 112.076-10.138 37.836-41.164 68.864-79.002 79.002-38.452 10.29-78.234-2.714-112.076-36.506-147.15-147.2-442.060-442.112-515.686-515.686-96.052-96.052-73.062-206.592-11.058-268.646 62.054-62.004 172.594-85.044 268.698 11.058l515.738 515.686c14.182 14.234 37.326 14.234 51.506 0 14.234-14.234 14.234-37.326 0-51.508l-515.738-515.738c-60.774-60.826-128.768-86.324-192.974-86.324z" />
<glyph unicode="&#xe605;" d="M636.518 972.8c68.608 0 102.912-46.796 102.912-100.25 0-66.764-59.596-128.562-137.114-128.562-65.024 0-102.912 38.4-101.12 101.836 0 53.504 45.056 126.976 135.322 126.976zM425.42-51.2c-54.17 0-93.85 33.382-55.962 180.378l62.156 260.658c10.802 41.728 12.596 58.47 0 58.47-16.282 0-86.528-28.826-128.102-57.242l-27.034 45.106c131.738 111.924 283.238 177.51 348.212 177.51 54.118 0 63.078-65.126 36.096-165.324l-71.22-274.022c-12.596-48.434-7.22-65.126 5.376-65.126 16.282 0 69.478 20.122 121.806 61.85l30.72-41.728c-128.050-130.356-267.93-180.53-322.048-180.53z" />
<glyph unicode="&#xe606;" d="M809.010 563.098h-92.212v71.68c0 148.326-68.302 235.52-204.8 235.52-136.448 0-204.8-87.194-204.8-235.52v-71.68h-102.4c-28.262 0-51.2-33.126-51.2-61.44v-399.36c0-28.16 21.966-58.318 48.742-66.918l61.234-19.814c26.778-8.654 71.73-15.718 99.942-15.718h296.96c28.16 0 73.164 7.066 99.942 15.718l61.236 19.814c26.828 8.602 48.742 38.758 48.742 66.918v399.36c0 28.314-33.126 61.44-61.39 61.44zM409.6 655.258c0 73.984 40.858 112.64 102.4 112.64 61.594 0 102.4-38.656 102.4-112.64v-92.16h-204.8v92.16z" />
<glyph unicode="&#xe607;" d="M808.96 563.2h-92.16v122.88c0 148.326-68.352 235.52-204.8 235.52-136.5 0-204.8-87.194-204.8-235.52v-20.48h102.4v40.96c0 73.984 40.806 112.64 102.4 112.64 61.542 0 102.4-38.656 102.4-112.64v-143.36h-409.6c-28.314 0-51.2-33.126-51.2-61.44v-399.36c0-28.16 21.966-58.266 48.742-66.918l61.234-19.814c26.83-8.602 71.782-15.668 99.942-15.668h296.96c28.212 0 73.164 7.066 99.942 15.718l61.236 19.814c26.778 8.602 48.742 38.706 48.742 66.866v399.36c0 28.314-33.126 61.44-61.44 61.44z" />
<glyph unicode="&#xe608;" d="M256 307.2h-51.2c-28.262 0-51.2-22.886-51.2-51.2s22.938-51.2 51.2-51.2h51.2c28.262 0 51.2 22.886 51.2 51.2s-22.938 51.2-51.2 51.2zM256 512h-51.2c-28.262 0-51.2-22.938-51.2-51.2s22.938-51.2 51.2-51.2h51.2c28.262 0 51.2 22.938 51.2 51.2s-22.938 51.2-51.2 51.2zM256 716.8h-51.2c-28.262 0-51.2-22.938-51.2-51.2s22.938-51.2 51.2-51.2h51.2c28.262 0 51.2 22.938 51.2 51.2s-22.938 51.2-51.2 51.2zM460.8 614.4h358.4c28.314 0 51.2 22.938 51.2 51.2s-22.886 51.2-51.2 51.2h-358.4c-28.262 0-51.2-22.938-51.2-51.2s22.938-51.2 51.2-51.2zM819.2 512h-358.4c-28.262 0-51.2-22.938-51.2-51.2s22.938-51.2 51.2-51.2h358.4c28.314 0 51.2 22.938 51.2 51.2s-22.886 51.2-51.2 51.2zM819.2 307.2h-358.4c-28.262 0-51.2-22.886-51.2-51.2s22.938-51.2 51.2-51.2h358.4c28.314 0 51.2 22.886 51.2 51.2s-22.886 51.2-51.2 51.2z" />
<glyph unicode="&#xe609;" d="M666.456 943.626c17.842 13.686 41.792 16.62 63.052 10.264 17.842-4.154 30.794-17.596 43.502-29.816 99.956-100.444 200.158-200.644 300.6-300.6 15.152-15.64 28.106-34.214 33.482-55.476v-27.372c-6.844-24.44-24.194-44.236-41.79-61.832-34.704-33.726-69.408-67.452-102.156-103.134-65.008-66.962-131.972-131.972-197.468-198.446-53.278-57.432-110.222-111.442-164.964-167.408-40.568-38.858-92.87-72.584-151.034-71.606-41.058 0-82.36-1.712-123.174 2.2-53.034 10.264-99.466 42.524-135.148 81.87-53.522 57.922-108.266 114.864-162.276 172.54-20.772 20.774-30.060 52.054-21.262 80.404 11.486 29.326 37.636 48.878 58.654 70.874 181.094 180.606 361.7 361.7 542.548 542.548 19.062 18.328 36.414 38.614 57.432 54.988zM367.564 532.072c-76.25-76.496-152.746-152.5-228.75-228.996-19.552-19.062-39.104-38.126-57.188-58.41 54.010-55.966 110.954-109 163.252-166.432 24.44-25.172 52.544-49.366 86.514-59.876 38.614-3.91 77.472-1.466 115.842-1.712 32.504-4.4 58.41 19.062 80.16 39.592 52.788 52.788 103.378 107.532 155.188 160.81-104.844 105.332-209.688 210.422-315.022 315.020z" horiz-adv-x="1108" />
<glyph unicode="&#xe60a;" d="M369.164 948.194h247.904c29.78-1.546 58.784-18.564 72.322-45.636 10.442-18.95 10.056-40.996 10.056-61.88 33.648 0 67.682 0.388 101.328 0 23.206 0 47.958-8.51 60.718-29.004 18.178-23.206 10.442-54.144 10.83-81.216-13.15 0.388-25.91 0.388-39.062 0.388 0-218.9 0-437.798 0-656.696 0.774-21.27-1.934-43.316-12.378-62.266-14.312-27.846-42.544-46.798-72.708-53.758h-510.508c-47.186 8.51-85.472 51.826-85.856 100.168-0.388 224.316 0 448.24 0 672.554-14.312 0-28.232-0.388-42.156 0.388 0.388 26.686-2.708 55.692 12.762 78.896 12.378 20.498 36.354 30.166 59.558 30.554 34.42 0.388 69.228 0 103.65 0-0.388 21.27-0.388 43.704 10.44 62.654 13.922 27.072 42.93 44.090 73.096 44.864zM354.852 880.126c-10.83-10.442-6.964-26.298-7.348-39.448 96.686 0.386 193.374 0.386 290.060 0 0 8.51 0.386 17.016-0.386 25.526-1.16 10.83-11.218 20.11-22.044 19.336-78.51 0.774-157.406 0-235.916 0.388-8.51 0-18.178 0.774-24.366-5.802zM227.612 730.842c0-221.606 0-442.826 0-664.432-1.546-16.244 10.83-33.26 27.844-32.874 157.406-0.386 314.812-0.386 472.218 0 15.858-1.16 29.78 12.762 29.394 28.618 0 222.766 0 445.92 0 668.684-176.356 0-353.098 0-529.456 0zM285.622 700.29c25.526 0.388 51.048 1.16 76.576 0-0.774-213.096 0.388-426.196-0.774-639.294-25.138 0.386-50.278 0-75.802 0 0 213.096 0 426.198 0 639.294zM454.246 700.29c25.526 1.16 51.048 0.388 76.576 0 0-213.096 0-426.196 0-639.294-25.526 0-50.664 0.386-76.188 0-0.774 213.096 0 426.198-0.388 639.294zM623.254 701.062c25.528 0 50.664-0.388 76.188-0.388 0-213.096-0.386-426.196 0-639.294-25.528-0.774-50.664 0-76.188 0 0 213.096-0.386 426.198 0 639.68z" />
<glyph unicode="&#xe60b;" d="M1032.57 956.652h0.83c32.406-32.406 66.47-64.81 97.218-98.876-42.376-41.544-83.922-84.754-127.13-126.296l2.49-4.986c105.526-73.952 186.122-181.138 232.652-300.788-54.838-137.932-154.55-259.24-284.168-331.532-181.138-103.864-414.622-108.018-599.080-12.462-47.362-45.698-93.892-93.062-140.424-139.592-35.73 27.42-66.468 64.81-99.71 97.216 41.546 39.884 81.428 81.428 122.144 121.314-83.922 70.626-148.734 163.688-188.616 266.72v9.142c16.618 17.45 20.774 42.376 33.238 62.32 73.95 140.424 201.076 253.426 351.474 305.772 140.424 49.852 298.294 47.362 437.054-5.818l5.818 0.83c52.348 52.348 104.692 104.692 156.21 157.042zM201.666 424.874c33.238-63.15 78.104-121.314 134.606-165.35 28.252 28.252 56.502 57.334 85.586 84.754 0.83 9.972-9.142 14.956-13.294 22.432-52.348 70.626-66.468 164.52-44.868 248.44-68.134-49.024-126.296-113.832-162.026-190.276zM924.552 614.322c2.49-24.096 9.972-48.192 8.312-73.12 4.154-103.032-54.838-205.232-143.748-255.918-74.782-44.038-169.502-50.684-250.934-19.11-24.928-24.928-49.024-51.518-75.612-74.782l0.83-6.648c141.254-54.838 307.432-41.544 436.224 38.222 78.938 48.192 142.914 118.818 185.29 201.076-32.406 76.444-93.89 141.254-160.364 190.274z" horiz-adv-x="1296" />
<glyph unicode="&#xe60c;" d="M633.538 871.194h71.096c121.88-7.616 241.222-48.244 340.248-120.188 104.952-75.33 184.512-182.82 231.064-302.162-48.244-120.188-127.804-227.68-234.45-302.162-147.272-107.492-341.942-143.886-518.836-101.568-209.058 46.552-383.416 206.518-458.742 405.42v13.542l4.232-8.464c44.858 120.188 127.804 225.138 231.91 298.774 97.334 69.404 214.138 108.338 333.478 116.802zM218.808 448.846c49.090-93.104 123.572-172.664 217.522-221.754 132.036-71.096 295.39-76.174 432.506-16.928 103.26 44.010 188.744 125.264 242.914 222.6 4.232 7.616 11.85 16.928 4.232 25.392-38.088 73.636-94.794 135.422-161.66 184.512 21.158-79.562 11.004-168.432-33.856-237.836-57.554-93.95-170.972-149.812-280.154-137.116-107.492 9.312-204.826 82.946-243.76 181.974-25.392 60.94-27.084 129.498-11.85 192.13-69.404-49.936-127.804-115.954-165.894-192.976z" horiz-adv-x="1476" />
<glyph unicode="&#xe60d;" d="M928 832h-832c-52.8 0-96-43.2-96-96v-576c0-52.8 43.2-96 96-96h832c52.8 0 96 43.2 96 96v576c0 52.8-43.2 96-96 96zM96 768h832c17.346 0 32-14.654 32-32v-96h-896v96c0 17.346 14.654 32 32 32zM928 128h-832c-17.346 0-32 14.654-32 32v288h896v-288c0-17.346-14.654-32-32-32zM128 320h64v-128h-64zM256 320h64v-128h-64zM384 320h64v-128h-64z" />
<glyph unicode="&#xe60e;" d="M76.648 783.414c14.824 36.626 53.48 59.586 92.14 59.878 290.664 0 581.332 0 871.994 0 28.194-0.872 56.388-12.21 75.282-33.718 10.464-12.5 18.894-27.032 22.382-43.018 0.582-114.23-0.582-228.462 0.29-342.694-20.93-1.162-42.146-0.292-63.364-0.582 0 5.812 0 11.918 0 17.73-313.918 0.292-627.836 0.292-941.754 0-0.29-99.99 0-199.686-0.29-299.676-0.582-18.022 13.662-36.332 32.556-36.626 186.026-0.292 372.050 0.292 558.076-0.292 0-21.798 0-43.89 0-65.692-183.99-1.162-368.274-0.292-552.264-0.582-31.102 0-62.784 13.082-81.966 38.078-13.37 17.73-22.382 39.53-21.51 62.202 0 190.676 0 381.644 0 572.61 0.29 24.126-2.906 49.994 8.428 72.376zM153.384 772.952c-13.662-6.104-19.766-21.798-19.474-35.752 0.29-31.972-0.29-63.656 0.29-95.338 312.464 0.292 625.222-0.292 937.976 0 0.582 0.872 2.036 2.036 2.616 2.616 0.29 32.844 0.582 65.692 0 98.534-0.582 16.568-13.662 33.134-31.102 32.264-290.664 0.292-581.332 0-872.286 0.292-5.812-0.292-12.498 0.29-18.022-2.616zM956.49 362.53c0 6.684 4.36 14.534 11.918 13.952 26.158 0 52.028 0 78.188 0 7.558 0.582 12.5-7.266 11.336-14.244-0.29-47.090 0.872-94.176-0.582-141.264 36.916-2.326 74.12 1.452 111.326-0.872 13.662-0.872 27.614 2.036 40.692-2.326 6.396-2.908 5.522-9.884 5.522-15.696 0-24.126 0.29-48.25 0-72.376 0.872-5.812-4.65-10.464-10.174-10.464 0-0.582 0.29-1.746 0.29-2.326-26.742 2.036-53.192-0.582-79.932 0.292-22.090-1.162-44.762 2.326-66.854-0.872 1.162-47.962 0.872-95.918 0-143.88 0.582-8.138-7.266-12.208-14.532-11.918-24.126 0-48.542 0-72.668 0-4.36-0.292-8.138 2.036-12.208 3.198-3.778 15.404-1.746 31.102-2.908 46.798-1.452 35.752 1.452 71.504 0.292 107.256-46.506 0-93.014-0.292-139.52 0-6.976 0.292-17.15 2.908-16.858 11.918 0 26.158-0.292 52.318 0 78.48-0.292 9.010 9.884 11.626 16.858 11.918 46.506 0.292 93.014 0 139.52 0.292 0.582 47.378 0 94.758 0.292 142.134zM201.634 306.142c21.8 0 43.6-0.292 65.4 0 2.036-31.392 0.29-63.364 0.872-95.046-0.29-13.082 1.162-26.452-1.162-39.53-21.51 0.872-43.308 0.582-64.82 0.292-0.582 44.764 0 89.524-0.29 134.286zM471.662 306.142c21.798-0.292 43.6 0 65.4 0-0.292-44.764 0-89.524-0.292-134.286-21.51 0.292-43.018 0.582-64.526-0.292-2.906 13.082-0.872 26.452-1.452 39.53 0.582 31.682-0.872 63.656 0.872 95.046zM336.212 305.562c22.092 0.582 44.182 0.872 66.272 0 0-44.472 0.29-88.654-0.29-133.124-21.798-0.582-43.892-0.582-65.692 0-0.872 44.182-0.29 88.654-0.29 133.124z" horiz-adv-x="1242" />
<glyph unicode="&#xe60f;" d="M255.11 793.934c48.528 40.070 114.866 58.324 177.198 48.528 63.222-9.35 121.544-47.192 156.27-100.618 36.508-55.208 46.302-125.998 27.158-189.218-10.684-40.070-35.616-74.35-64.11-104.18 114.422-42.742 204.8-143.36 232.848-262.234 11.576-44.522 11.576-91.27 11.13-137.126-264.904 0-529.808 0-794.712 0 0 26.268-0.89 52.090 1.336 78.358 5.788 70.344 31.164 139.354 73.906 195.896 42.74 56.988 101.954 101.064 168.292 125.998-44.076 42.296-72.57 101.51-73.462 162.95-1.782 69.454 29.83 138.462 84.146 181.65zM178.978 309.092c-48.082-44.966-81.474-107.744-88.154-174.080 205.246 0.446 410.046 0.446 615.29 0.446-9.35 75.242-50.754 145.586-111.304 190.998-119.764 91.27-304.974 85.482-415.834-17.364z" horiz-adv-x="798" />
<glyph unicode="&#xe610;" d="M768 320v128h-320v128h320v128l192-192zM704 384v-256h-320v-192l-384 192v832h704v-320h-64v256h-512l256-128v-576h256v192z" />
<glyph unicode="&#xe611;" d="M64 768h896v-192h-896zM64 512h896v-192h-896zM64 256h896v-192h-896z" />
<glyph unicode="&#xe612;" d="M898.304 180.838l-193.486 193.486c29.184 47.974 45.978 104.192 45.978 164.454 0 174.9-151.602 326.502-326.554 326.502-174.9 0-316.724-141.824-316.724-316.722 0-174.95 151.552-326.554 326.502-326.554 58.164 0 112.64 15.77 159.488 43.162l194.51-194.56c19.098-19.046 49.92-19.046 68.914 0l48.282 48.23c18.996 19.046 12.082 43.008-6.912 62.004zM205.004 548.558c0 121.088 98.15 219.29 219.238 219.29 121.138 0 229.070-107.93 229.070-229.068s-98.15-219.29-219.29-219.29-229.018 107.93-229.018 229.070z" />
<glyph unicode="&#xe613;" d="M132.198 686.028c-13.876 13.722-36.302 13.722-50.126 0-13.824-13.67-13.824-35.892 0-49.614l404.89-400.896c13.876-13.722 36.25-13.722 50.126 0l404.89 400.896c13.824 13.722 13.876 35.89 0 49.612s-36.352 13.722-50.126 0.052l-379.854-365.62-379.802 365.568z" />
<glyph unicode="&#xe614;" d="M305.322 845.158h421.064c35.476-19.278 77.888-23.136 110.278-49.356 35.476-21.592 55.524-58.608 72.49-94.856v-514.378c-264.516 0-529.8-0.77-794.316 0v515.15c11.57 13.88 19.278 30.848 28.534 47.044 19.278 28.534 47.814 50.9 79.432 65.55 26.222 13.882 56.298 16.968 82.516 30.848zM367.016 785.778c-6.168-10.798-18.508-20.052-15.424-33.932 5.396-13.11 17.736-25.45 32.39-24.678 85.602 0 170.432 0 255.262 0 15.424-0.77 33.932 9.254 35.476 25.45 4.628 20.050-16.196 39.328-35.476 34.704-91-1.542-181.226 3.086-272.226-1.542zM287.586 666.246c-33.16 0-72.49-13.11-85.602-46.27-18.508-47.042-6.942-97.942-10.026-146.524 92.54 0 185.084-0.772 276.856 0 0 64.010 0.772 128.788 0 192.796-60.154 0.77-120.304 1.542-181.228 0zM558.27 667.016c-1.542-64.778-0.77-129.56 0-194.34 91.77 0 184.312 0 276.856 0-0.77 42.416 3.086 84.83-2.312 127.244-6.168 37.788-41.644 64.010-78.66 65.55-64.778 3.858-130.332 0-195.88 1.542zM781.912 377.822c-33.932-10.798-50.9-57.84-24.678-85.602 22.362-32.39 77.888-23.906 91 13.88 20.052 40.1-25.45 87.914-66.322 71.718zM208.156 375.51c-37.016-14.65-42.416-71.72-9.254-92.54 31.618-26.222 83.286-0.77 84.83 38.56 5.396 38.56-40.872 72.49-75.574 53.982zM171.138 155.722c39.33 0.77 79.432 0.77 118.762 0 0-21.592 0.772-43.956-1.542-65.55-1.542-17.736-18.508-28.534-30.848-39.328h-53.982c-40.872 19.278-32.39 67.862-32.39 104.884zM740.27 156.494c39.328-0.77 78.662 0 117.99-0.77 0-22.364 1.544-45.5-2.312-67.862-3.856-19.278-22.364-30.846-39.328-37.018h-43.188c-3.856 3.086-11.568 8.482-15.424 11.568-29.304 21.592-16.966 63.236-17.736 94.084z" />
<glyph unicode="&#xe615;" d="M341.756 947.018c9.956 2.050 20.694 0 29.188-5.76 8.786-5.956 15.034-15.62 16.596-26.162 1.464-9.86-0.88-20.206-6.736-28.308-6.834-9.664-18.45-15.912-30.358-16.106-11.42-0.488-22.842 4.588-30.262 13.178-8.004 9.176-11.226 22.158-8.492 34.068 3.222 14.448 15.424 26.356 30.066 29.090zM445.524 946.724c9.762 2.342 20.304 0.878 28.894-4.296 10.152-5.954 17.278-16.692 18.644-28.406 1.17-9.47-1.27-19.426-6.834-27.236-6.834-9.664-18.45-15.912-30.358-16.106-11.128-0.488-22.354 4.294-29.774 12.69-8.298 8.98-11.616 21.866-9.176 33.774 2.832 14.252 14.448 26.26 28.602 29.578zM260.15 848.912c6.638 0.294 13.276 0.682 20.012 0.78 79.362 0 158.822 0 238.186 0 23.526-0.976 47.052-1.756 70.382-4.002 15.62-2.44 30.164-8.98 44.124-16.204 13.666-7.516 26.942-16.302 37.972-27.43 12.982-13.082 23.134-28.894 30.554-45.782 4.88-10.544 6.736-22.062 8.98-33.384 7.712-43.342 12.592-87.172 17.182-130.904 2.44-24.502 5.662-48.808 8.298-73.31 2.832-23.622 4.588-47.344 5.76-71.064 1.952-48.222 4.88-96.348 6.736-144.57 1.27-31.53 2.246-63.158 1.658-94.688-0.39-16.010-0.88-32.214-4.394-47.93-1.464-6.832-5.564-12.788-9.47-18.45-3.318-4.49-6.638-8.98-11.030-12.496-8.2-6.54-17.182-12.202-27.040-16.204-11.714-5.37-24.502-7.808-37.094-10.25-14.544-3.026-29.284-3.222-44.024-4.198-14.252-0.88-28.602-0.39-42.952-0.586-122.412 0-244.726 0-367.138 0-17.864-0.196-35.728 1.074-53.592 2.342-13.666 1.172-27.138 4.198-40.412 7.614-15.522 4.686-30.358 12.202-42.756 22.842-5.856 5.662-10.542 12.496-14.74 19.524-4.296 6.932-5.076 15.326-6.246 23.232-2.636 21.77-2.244 43.83-2.244 65.696 0.78 56.716 4.002 113.332 6.832 169.952 1.074 21.476 1.658 42.952 3.32 64.428 2.538 38.85 8.296 77.312 12.202 116.066 4.49 42.756 9.274 85.512 16.496 127.976 2.050 11.128 4.002 22.452 7.808 33.288 9.958 24.99 25.966 48.126 48.028 64.038 14.936 10.834 31.432 19.718 48.808 25.868 6.832 2.342 13.764 4.394 20.988 4.978 16.204 1.368 32.506 2.050 48.808 2.832zM300.758 802.642c-7.712-0.682-13.862-7.81-13.764-15.424 0-15.326 0-30.554 0-45.88-0.194-8.296 7.224-15.814 15.522-15.52 66.086 0 132.174 0 198.26 0 8.298-0.294 15.716 7.322 15.52 15.52 0 15.326 0 30.554-0.098 45.88 0.294 8.296-7.126 15.716-15.424 15.52-66.672-0.098-133.346 0.098-200.016-0.098zM164.484 688.040c-12.788-2.342-25.868-8.688-32.116-20.596-4.882-8.786-4.1-19.034-4.882-28.698-3.514-57.4-4.882-115.284 1.17-172.586 1.366-14.154 8.004-26.942 12.884-40.12 6.54-17.572 17.96-32.798 29.968-47.052 3.806-4.394 7.42-8.884 11.812-12.69 25.674-22.746 54.86-41.486 86.196-55.25 40.218-17.572 83.854-26.942 127.682-27.43 40.902-0.586 81.998 6.54 120.264 21.086 35.336 13.276 68.332 32.798 97.13 57.4 3.708 3.318 7.712 6.442 10.932 10.346 11.128 12.592 21.866 25.674 29.87 40.61 3.708 6.932 6.346 14.448 9.37 21.77 3.808 9.86 8.2 19.718 9.176 30.358 6.736 62.572 4.686 125.73 0.488 188.4-0.682 7.126-3.222 14.058-7.808 19.426-7.028 8.494-17.668 13.082-28.308 14.936-6.736 1.368-13.568 0.976-20.402 1.074-147.402 0-294.802 0-442.302 0-3.71 0-7.516-0.292-11.128-0.976zM182.934 279.024c-16.4-2.928-31.042-13.862-38.656-28.504-7.908-14.838-8.396-33.288-1.27-48.418 5.076-11.128 13.96-20.5 24.99-26.064 13.568-7.028 30.066-7.908 44.416-2.44 12.788 4.784 23.722 14.644 29.772 26.942 5.956 12.006 7.42 26.26 3.71 39.144-3.514 12.788-11.908 24.208-23.038 31.432-11.616 7.614-26.26 10.544-39.926 7.908zM599.756 279.024c-18.158-3.222-34.166-16.4-40.9-33.58-5.564-13.568-5.27-29.384 0.78-42.756 5.856-13.374 17.278-24.11 30.946-29.188 11.128-4.198 23.722-4.588 35.142-1.172 14.448 4.294 26.746 14.838 33.384 28.308 6.442 12.884 7.516 28.308 2.832 41.878-4.1 12.398-12.788 23.134-24.014 29.774-11.324 6.736-25.184 9.176-38.168 6.736zM73.504-5.82c19.034 20.010 38.266 39.924 57.204 60.034 25.186 0.294 50.272 0.196 75.458 0-12.202-26.942-24.99-53.592-37.29-80.534-25.088-0.196-50.174 0-75.166-0.098-13.082 0.196-26.162-0.294-39.242 0.196 5.954 7.224 12.788 13.568 19.036 20.402zM589.898 54.408c24.99-0.098 49.98-0.098 74.872 0 20.988-22.158 41.586-44.514 62.376-66.77 4.1-4.784 8.98-8.98 12.69-14.154-34.752 0.098-69.406 0.196-104.158 0-15.034 25.674-29.48 51.836-44.318 77.702-0.682 0.976-1.172 2.050-1.464 3.222z" horiz-adv-x="808" />
<glyph unicode="&#xe616;" d="M288.886 912.538c25.302 1.628 50.71 2.93 76.12 2.714 85.132-0.108 170.156 0 255.18-0.108 18.784-0.76 37.572-1.63 56.356-2.822 10.1-0.65 20.308-0.976 30.078-4.018 19.764-5.864 38.548-15.202 55.706-26.604 28.342-18.244 48.972-46.802 60.808-77.966 6.408-20.848 9.23-42.568 12.596-64.174 3.258-22.26 6.082-44.63 8.688-67.106 9.774 2.39 19.87 0.76 29.754 1.302 12.27 0.436 23.346-10.316 23.456-22.586 0-40.718 0-81.438 0-122.16 0.108-9.122-5.648-17.81-14.008-21.394-6.624-2.93-14.116-1.52-21.066-1.738 1.63-23.454 2.716-46.91 3.692-70.474 3.476-71.232 7.818-142.466 8.144-213.81-0.434-24.106 0.108-48.43-4.886-72.212-1.41-7.274-5.538-13.682-9.664-19.764-3.8-5.428-7.818-10.966-13.030-15.202-9.446-7.6-19.87-14.116-31.164-18.678-12.38-5.538-25.842-8.034-38.982-10.86 0-21.39 0-42.78 0-64.174 0-4.018 0.216-8.144-0.544-12.052-2.28-12.052-13.356-21.61-25.626-21.934-22.802-0.108-45.606-0.108-68.302-0.108-14.222-0.216-27.254 12.27-27.254 26.496 0 22.15 0 44.194 0 66.346-113.038 0.108-225.972 0-339.010 0-0.216-22.15 0.108-44.302-0.108-66.346-0.216-13.682-12.052-25.842-25.736-26.388-23.236-0.108-46.366-0.108-69.496-0.108-13.574 0.216-25.736 11.836-26.388 25.408-0.218 24.106 0.218 48.104-0.218 72.102-12.162 2.39-24.324 4.668-36.052 8.794-9.23 3.582-18.568 7.494-26.82 13.14-6.406 4.342-12.922 8.578-17.808 14.55-4.668 5.648-8.904 11.726-12.486 18.134-3.692 6.408-4.668 13.682-5.864 20.85-3.474 25.952-2.93 52.23-2.93 78.292 0.87 56.9 3.91 113.692 6.734 170.374 1.63 29.318 2.496 58.53 4.234 87.74-4.886 0-9.99-0.436-14.876 0.216-10.858 1.846-19.22 12.162-19.004 23.020 0 40.722-0.108 81.438 0 122.158 0.216 11.836 10.534 22.26 22.368 22.37 9.774 0 19.656 0.326 29.428-0.324 4.126 37.136 8.794 74.274 15.312 110.976 2.39 11.294 4.236 22.694 8.578 33.442 9.882 23.89 24.65 46.042 44.522 62.872 20.632 16.832 44.738 29.428 70.146 37.354 9.446 3.148 19.546 3.582 29.428 4.452zM264.236 862.914c-7.71-0.65-15.638-2.498-22.152-6.95-3.258-2.28-6.514-5.754-6.408-9.99 0-17.048 0-34.096 0-51.036-0.218-4.886 3.692-8.688 7.492-11.076 8.144-5.106 17.918-6.408 27.364-6.408 141.924 0 283.848 0 425.772 0 9.34 0 19.004 1.412 27.038 6.514 3.8 2.39 7.494 6.082 7.274 10.966 0 16.94 0.108 33.988 0 51.038 0 4.668-3.692 8.36-7.384 10.75-8.688 5.322-19.22 6.514-29.21 6.408-114.778-0.108-229.446-0.108-344.224-0.108-28.56-0.108-57.010 0.326-85.568-0.108zM226.23 735.976c-15.204-1.956-31.056-8.906-38.764-22.912-6.080-10.316-4.886-22.696-5.864-34.312-3.692-59.288-4.994-118.904 0.218-178.082 0.652-7.384 1.194-14.658 2.824-21.826 1.956-8.036 5.212-15.638 8.144-23.346 3.692-8.904 6.734-18.134 11.402-26.604 7.276-13.466 16.724-25.736 26.604-37.356 4.236-4.886 8.252-9.88 13.248-14.008 33.446-29.862 72.538-53.424 114.56-68.952 46.91-17.592 97.512-25.302 147.57-22.476 83.504 4.236 165.38 38.332 226.73 95.23 13.032 14.442 25.626 29.536 35.074 46.586 4.668 8.144 7.708 16.94 11.184 25.628 4.342 11.076 9.23 22.152 10.534 34.096 7.384 69.714 5.102 139.968 0.434 209.682-0.76 7.384-3.366 14.77-8.034 20.632-7.168 9.23-18.35 14.55-29.644 16.94-8.144 2.062-16.614 1.412-24.866 1.522-163.206 0-326.416 0-489.62 0-3.908 0.108-7.818 0.108-11.728-0.436zM246.862 280.992c-21.064-2.39-40.068-16.832-48.43-36.268-6.95-15.746-6.734-34.424 0.652-50.058 6.408-14.116 18.568-25.518 33.010-31.164 12.812-5.102 27.364-5.648 40.612-1.52 16.178 4.994 29.97 17.048 37.138 32.358 4.994 10.424 6.734 22.26 5.322 33.662-1.846 15.746-10.316 30.62-22.802 40.394-12.704 10.1-29.536 14.77-45.498 12.596zM707.6 280.558c-17.374-3.042-33.12-14.008-42.024-29.318-8.36-13.9-10.642-31.272-6.298-46.91 4.558-17.266 17.266-32.034 33.446-39.526 15.202-7.168 33.554-7.494 49.082-0.868 15.42 6.408 27.908 19.22 33.662 34.856 4.236 10.75 4.886 22.586 2.822 33.878-3.258 15.312-12.38 29.21-25.408 38.004-12.922 9.23-29.644 12.706-45.28 9.88z" horiz-adv-x="958" />
<glyph unicode="&#xe617;" d="M839.219 752.98c39.287 30.936 90.618 45.719 140.17 40.793 49.825-4.38 97.598-28.746 130.314-66.388 34.359-38.328 52.427-90.481 49.553-141.812-2.602-52.015-26.556-102.938-65.842-137.158l0.548-0.959c35.317-13.963 68.58-32.989 97.736-57.356 2.874-1.781 4.654-4.929 7.801-6.022 17.248 11.087 35.726 19.849 54.755 27.377-3.286 4.518-7.939 7.802-11.362 11.909-25.597 27.923-42.298 64.198-45.992 101.979-5.201 47.498 9.855 96.777 40.93 133.053 1.096 1.231 2.327 2.327 2.874 3.971 12.321 12.457 25.461 24.366 40.655 33.263 38.19 23.545 85.417 31.484 129.219 22.038 48.32-10.13 91.714-41.338 116.489-84.047 24.092-40.793 30.662-91.439 17.933-137.021-8.898-32.578-27.513-62.282-52.427-85.005 1.643-2.327 4.928-2.327 7.255-3.697 57.903-24.092 109.507-65.157 141.539-119.5 25.324-42.161 40.107-90.618 42.845-139.759 0.959-16.563 0.548-33.126 0.684-49.825-81.856-0.137-163.715 0-245.572 0-47.91-0.137-95.818 0.274-143.73-0.274-71.591 0-143.319 0-214.91 0-65.705 0.548-131.409 0.137-197.114 0.274-145.919-0.822-291.975 0.137-438.031 0-70.907 0-141.812-0.137-212.719 0.137 0.137 25.734-0.822 51.743 3.286 77.341 8.076 54.617 30.662 107.454 66.114 149.889 31.484 37.095 72.823 65.43 117.857 83.364 1.369 0.959 4.243 0.959 4.38 3.148-7.116 5.612-13.14 12.457-18.753 19.437-21.218 26.145-34.769 58.45-38.328 91.85-4.79 41.202 5.475 83.774 28.608 118.269 8.35 13.005 19.163 24.227 30.115 35.181 0.41 0.137 0.959 0.41 1.369 0.548 25.734 22.449 58.175 37.233 92.122 41.886 33.401 4.654 68.169-0.41 98.83-14.647 30.388-14.1 56.534-36.821 74.739-64.884 18.891-29.020 29.020-63.788 28.335-98.557 0-48.731-22.038-96.915-58.039-129.629l-0.137-1.643c19.574-7.255 38.328-16.974 55.986-28.197 30.115 26.965 65.157 48.457 102.663 63.651 1.781 0.959 4.38 0.684 5.338 2.739-28.608 26.281-49.688 60.914-59.133 98.694-7.802 30.936-8.076 63.788-0.548 94.861 10.266 43.667 36.138 83.499 71.591 110.741zM904.239 392.97c-46.405-7.666-91.028-27.788-126.479-58.861-26.692-22.997-49.142-51.195-64.61-82.954-11.909-24.365-19.3-50.647-22.587-77.477 180.14 0.274 360.418-0.137 540.558 0.137-4.38 34.221-15.741 67.621-34.084 96.915-7.666 12.729-16.974 24.227-26.008 35.726-7.255 6.707-13.414 14.922-21.080 21.217-35.863 33.536-81.856 55.712-130.040 64.472-38.19 7.116-77.477 7.255-115.668 0.822zM407.213 329.731c-16.974-10.54-32.169-23.407-45.72-37.917-32.442-34.221-54.343-78.708-59.271-125.661 104.033 0.137 208.065-0.137 312.097 0.137 5.75 59.271 26.282 117.312 60.64 166.042-18.069 11.087-37.917 19.026-58.312 24.776-22.723 5.885-46.405 9.583-69.948 8.76-48.594 1.781-98.283-9.992-139.485-36.138zM1288.887 354.097c-15.467-4.79-29.978-11.909-44.35-19.3 1.916-4.243 5.338-7.527 7.666-11.498 30.936-46.814 49.688-101.294 55.029-157.005 102.801-0.137 205.464 0 308.127-0.137-4.38 38.054-19.574 74.602-42.983 104.992-19.985 26.419-45.172 49.142-74.329 65.021-38.602 21.354-83.226 31.073-127.166 29.704-27.788 0.959-55.575-3.697-81.995-11.772z" horiz-adv-x="1930" />
<glyph unicode="&#xe618;" d="M293.038 786.772c10.211 18.82 32.476 28.907 53.387 28.538 289.814 0 579.751 0 869.69 0 8.733 0.123 17.837 0.246 26.325-2.461 12.918-3.69 24.725-11.685 32.106-22.881 7.136-10.949 10.826-23.987 10.457-36.904 0-179.597 0-359.193 0-538.913 0.246-18.206-7.258-37.026-21.651-48.59-8.364-6.396-18.453-10.58-28.785-12.3-5.658-0.859-11.44-0.615-17.099-0.615 0.737-16.853-4.797-34.074-16.36-46.375-11.44-11.685-27.922-17.837-44.161-17.96-292.766 0-585.533 0-878.3 0-18.576-0.246-37.765 7.628-49.207 22.634-7.874 10.949-12.793 24.479-12.178 38.133 0 180.457 0 360.792 0 541.25-0.615 14.147 4.552 28.415 13.163 39.61 12.793 15.87 34.074 22.758 54.001 21.036-0.246 12.423 2.339 24.971 8.61 35.796zM324.898 772.013c-5.658-5.289-5.905-13.655-5.289-20.911 279.112 0.246 558.224 0 837.337 0.124 14.147 0.246 28.17-4.552 39.241-13.163 13.53-11.316 21.528-28.907 21.281-46.498 0-168.034-0.123-336.065 0-504.1 6.027 0 12.3-0.615 18.082 1.23 5.782 2.83 10.702 7.628 13.286 13.53 1.599 5.905 1.352 12.055 1.352 18.206 0 177.874 0 355.87 0 533.867-0.123 5.658-0.369 11.933-4.305 16.483-3.69 4.059-7.996 8.487-13.776 9.225-5.289 0.615-10.702 0.246-16.114 0.369-291.168 0-582.212 0-873.379 0-7.012 0.615-13.407-3.075-17.714-8.364zM266.837 715.303c-7.628-3.69-14.883-10.949-14.761-19.927 0-182.917 0-365.835 0-548.753-1.23-12.423 10.58-24.109 22.881-23.494 292.766 0 585.533 0 878.3 0 6.027 0 12.67-0.493 17.96 2.952 6.273 4.429 11.933 11.193 11.44 19.313 0 182.549 0 364.974 0 547.398 0.984 12.055-9.964 23.618-22.020 23.494-295.596 0-591.315 0-886.909 0-2.339 0-4.674-0.369-6.89-0.984zM414.943 570.028c17.222 11.809 38.503 17.344 59.29 15.622 29.399-1.969 57.2-19.313 71.962-44.777 12.178-20.297 15.87-45.269 10.457-68.272-4.305-18.206-14.27-35.059-28.292-47.359 1.353-0.984 2.952-1.599 4.552-2.215 22.634-9.225 42.808-23.866 59.045-42.069 16.729-19.927 28.17-44.284 33.337-69.748 3.319-15.745 3.445-31.984 3.075-48.096-106.774-0.246-213.547 0-320.321-0.123-2.706-0.737-2.583 2.583-2.583 4.183 0.123 10.457-0.246 21.036 1.106 31.367 3.566 30.016 15.499 59.414 35.182 82.418 16.853 19.927 39.24 34.934 63.596 44.161-14.27 13.408-24.848 30.753-28.661 50.066-5.536 25.709 0.858 53.51 16.853 74.299 3.69 6.027 9.471 10.333 14.147 15.377 2.583 1.599 4.92 3.319 7.258 5.166zM375.21 366.199c-18.331-18.083-31.121-42.439-33.829-68.272 83.772-0.369 167.417-0.123 251.189-0.123-2.461 19.927-10.457 39.116-22.758 54.863-23.249 32.229-63.473 50.312-102.961 48.836-33.581 1.353-67.902-11.070-91.642-35.304zM699.591 551.083c126.578 0.246 253.278 0 379.858 0.123 6.766 0 14.147-0.493 19.804-4.798 5.413-4.183 5.905-13.407 0.615-17.96-4.551-3.935-10.827-5.289-16.729-5.289-127.562 0-255.125 0-382.688 0-6.151 0.246-13.286 1.476-17.344 6.644-4.674 5.043-3.075 13.9 2.706 17.345 4.059 2.83 8.979 3.566 13.776 3.935zM778.564 501.51c2.215 0.493 4.551 0.493 6.89 0.493 101.73-0.123 203.337 0 305.069-0.123 8.364 0.369 15.499-7.628 14.515-15.87 0-7.628-7.012-14.147-14.515-13.9-102.469 0-204.938 0-307.406 0-7.381-0.493-14.64 5.536-15.253 12.918-1.23 7.136 3.566 14.761 10.702 16.483zM709.677 368.534c2.215 0.493 4.551 0.493 6.89 0.615 121.782 0 243.562 0 365.344 0 6.644 0.123 14.023-1.846 18.453-7.258 3.812-4.551 4.305-11.685 0.859-16.729-4.059-5.659-11.316-8.364-18.082-8.364-122.641 0-245.284 0-367.805 0-4.92 0.123-9.964 0.984-14.023 3.935-6.027 3.69-8.61 12.178-5.289 18.576 2.83 4.92 7.995 8.241 13.655 9.225zM785.945 316.871c4.551 1.723 9.47 1.106 14.27 1.23 95.949 0 191.898 0 287.847 0 4.798 0.246 9.718-1.599 12.67-5.536 2.952-6.52 3.075-15.377-2.583-20.542-2.339-3.075-6.396-3.935-9.964-3.812-98.902 0.123-197.801 0-296.58 0-8.241 0-15.377 7.874-14.64 15.991-0.123 5.658 3.812 10.702 8.979 12.67z" horiz-adv-x="1497" />
<glyph unicode="&#xe619;" d="M262.524 808.456c10.88 20.579 34.866 31.721 57.41 31.458 306.324 0 612.514 0 918.837 0 12.19-0.262 24.773 0.915 36.57-3.015 10.356-3.276 20.317-8.52 27.916-16.385 10.224-11.667 16.778-26.739 16.91-42.206 0.786-5.243 0.393-10.488 0.525-15.728 0-176.952 0-353.904 0-530.855-0.262-15.334 0.655-30.802-1.049-46.009-3.408-16.91-12.451-33.555-27.525-42.469-12.845-8.39-28.443-11.273-43.649-10.355 0.916-18.482-5.505-37.488-18.744-50.725-12.322-11.535-29.229-17.695-46.009-17.958-311.959 0-623.918 0-935.747 0-17.564 0.131-35.391 6.292-48.105 18.744-9.699 10.488-16.254 24.38-17.564 38.667 0 197.53 0 394.929 0 592.46 1.179 13.765 7.341 27.132 16.385 37.488 13.894 14.811 34.997 21.234 55.052 19.922-0.262 12.846 2.36 25.821 8.781 36.963zM294.769 789.977c-3.537-5.374-3.145-12.19-2.883-18.482 298.065 0 596.263 0 894.459 0 12.846-0.655 25.431-4.587 36.046-11.927 13.37-8.781 21.366-23.725 24.905-39.059 1.836-10.749 1.179-21.758 1.31-32.637 0-172.364 0-344.729 0-517.093 7.865 0.393 17.171-1.705 23.594 4.062 3.932 3.408 8.128 7.209 9.568 12.451 0.786 3.8 0.786 7.734 0.916 11.535 0 126.75 0 253.5 0 380.25-0.131 66.454 0.262 132.911-0.131 199.364 0.786 9.175-5.768 16.646-13.107 21.234-5.768 3.145-12.583 2.097-18.875 2.228-312.485 0-624.837 0-937.32 0-7.865-0.131-14.026-5.899-18.482-11.927zM431.351 593.756c-30.54-5.113-57.936-25.69-71.304-53.61-10.224-20.972-12.977-45.483-6.815-68.028 4.72-18.613 15.205-35.522 29.361-48.367-21.628-7.996-41.551-20.579-58.067-36.701-28.967-28.182-45.483-68.028-48.104-108.138 0-9.438 0-18.743 0-28.050 114.822-0.131 229.514-0.262 344.203 0 0.131 14.55 0.525 29.361-1.967 43.779-4.85 31.851-18.874 62.39-40.766 86.247-17.564 18.875-39.847 33.294-63.834 42.6 20.972 18.482 33.161 46.402 32.9 74.32s-12.977 55.444-34.211 73.664c-22.021 19.137-52.692 27.525-81.399 22.282zM690.224 557.186c-5.636-0.916-11.535-4.062-13.765-9.568-1.311-4.193-0.916-9.175 1.967-12.583 4.325-5.113 11.273-6.684 17.695-7.209 135.007 0 270.014 0 405.023 0 7.604-0.393 15.728 0.915 21.889 5.636 5.636 5.113 5.243 15.074-0.786 19.662-7.604 5.505-17.564 5.243-26.477 5.113-128.847 0-257.694 0-386.541 0-6.422 0-12.845 0.525-19.006-1.049zM782.633 505.541c-7.734-0.655-14.156-7.865-13.765-15.599-0.655-8.52 6.684-16.646 15.205-16.385 107.875 0 215.62 0 323.495 0 3.145 0 6.292-0.131 9.306 0.393 5.899 1.311 10.488 6.292 11.536 12.058 2.622 9.568-5.636 19.922-15.466 19.794-92.147 0.131-184.292 0-276.438 0-17.958-0.131-35.915 0.393-53.873-0.262zM707.132 363.457c-9.044-1.179-18.089-9.438-16.122-19.137 1.704-9.568 11.667-15.205 20.842-14.942 129.24 0 258.612 0 387.984 0 5.243 0 10.749-0.262 15.728 1.967 5.505 2.228 10.488 6.947 11.273 13.107 1.049 5.768-1.967 11.667-6.554 14.942-4.325 3.276-9.83 4.587-15.205 4.85-130.157 0-260.317 0-390.605 0-2.492 0-4.851-0.131-7.341-0.786zM788.4 308.536c-7.604-2.622-11.797-11.667-9.175-19.137 1.836-6.684 8.39-11.667 15.205-11.927 106.171 0 212.343-0.131 318.644 0 12.451 1.179 16.778 17.958 9.962 27.001-2.883 4.193-8.128 5.374-12.715 5.243-104.466 0-208.935 0-313.271 0-2.883-0.131-6.029-0.131-8.65-1.179zM374.464 379.055c18.613 11.667 40.372 17.302 61.998 19.006 7.079 0 14.026 0 21.102 0 26.083-1.311 52.168-9.438 73.141-25.034 27.394-20.053 46.925-51.12 51.25-84.937-81.267 0.393-162.402 0.131-243.667 0.131-7.734 0.393-15.599-0.655-23.201 0.525 4.72 37.094 27.657 70.783 59.378 90.312z" horiz-adv-x="1497" />
</font>
</defs>
</svg>
