<?xml version="1.0" standalone="no"?>
<!DOCTYPE svg PUBLIC "-//W3C//DTD SVG 1.1//EN" "http://www.w3.org/Graphics/SVG/1.1/DTD/svg11.dtd" >
<svg xmlns="http://www.w3.org/2000/svg">
<metadata>
This is a custom SVG font generated by IcoMoon.
<iconset grid="16"></iconset>
</metadata>
<defs>
<font id="mobispot-icon" horiz-adv-x="512" >
<font-face units-per-em="512" ascent="480" descent="-32" />
<missing-glyph horiz-adv-x="512" />
<glyph class="hidden" unicode="&#xf000;" d="M0,480L 512 -32L0 -32 z" horiz-adv-x="0" />
<glyph unicode="&#xe001;" d="M 30.003,419.379L 95.37,419.379L 95.37,353.987L 30.003,353.987zM 139.756,419.379L 469.033,419.379L 469.033,353.987L 139.756,353.987zM 30.003,309.617L 95.37,309.617L 95.37,244.224L 30.003,244.224zM 139.756,309.617L 469.033,309.617L 469.033,244.224L 139.756,244.224zM 30.003,199.828L 95.37,199.828L 95.37,134.461L 30.003,134.461zM 139.756,199.828L 469.033,199.828L 469.033,134.461L 139.756,134.461zM 30.003,90.102L 95.37,90.102L 95.37,24.709L 30.003,24.709zM 139.756,90.102L 469.033,90.102L 469.033,24.709L 139.756,24.709z" />
<glyph unicode="&#xe003;" d="M 419.041,423.593c-64.061,2.089-107.412-33.843-130.109-107.843c 11.689,4.813, 23.050,7.245, 34.125,7.245
	c 23.363,0, 33.705-13.112, 30.94-39.404c-1.367-15.918-11.689-39.081-30.94-69.484c-19.323-30.449-33.756-45.65-43.346-45.65
	c-12.452,0-23.782,23.526-34.13,70.518c-3.471,13.839-9.677,49.080-18.56,105.81c-8.33,52.541-30.341,77.092-66.13,73.641
	c-15.14-1.388-37.821-15.252-68.091-41.492C 70.717,356.874, 48.343,336.809, 25.6,316.764l 21.668-27.976c 20.68,14.531, 32.778,21.76, 36.137,21.76
	c 15.857,0, 30.669-24.873, 44.447-74.619c 12.355-45.686, 24.812-91.31, 37.222-136.929C 183.562,49.219, 206.351,24.32, 233.16,24.32
	c 43.361,0, 96.451,40.781, 159.058,122.368c 60.57,78.111, 91.843,139.653, 93.952,184.637C 488.95,391.444, 466.575,422.231, 419.041,423.593z" />
<glyph unicode="&#xe004;" d="M 361.431,299.494c-42.501,0-76.979,34.391-76.979,76.79c0,42.404, 34.478,76.805, 76.979,76.805
	s 76.969-34.401, 76.969-76.805C 438.4,333.885, 403.932,299.494, 361.431,299.494L 361.431,299.494z M 298.455,225.49
	c0,42.424-34.458,76.79-76.974,76.79c-42.522,0-76.969-34.365-76.969-76.79c0-1.741, 0.138-3.42, 0.261-5.13l-0.261,0 l0-133.11 l 153.943,0 
	L 298.455,220.36 l-0.271,0 C 298.312,222.070, 298.455,223.749, 298.455,225.49L 298.455,225.49z M 221.481,312.54c 31.165,0, 56.438,25.201, 56.438,56.31
	c0,31.084-25.277,56.31-56.438,56.31c-31.16,0-56.438-25.226-56.438-56.31C 165.038,337.741, 190.321,312.54, 221.481,312.54L 221.481,312.54
	z M 466.391,180.797c0,57.856-46.986,104.735-104.96,104.735c-57.984,0-104.96-46.879-104.96-104.735c0-2.355, 0.189-4.664, 0.348-6.963l-0.348,0 l0-181.54 
	l 209.92,0 L 466.391,173.829 l-0.348,0 C 466.196,176.128, 466.391,178.442, 466.391,180.797L 466.391,180.797z M 109.527,310.666c-34.796,0-62.976-28.114-62.976-62.833
	c0-1.408, 0.108-2.801, 0.21-4.198L 46.551,243.635 l0-108.913 l 125.952,0 L 172.503,243.63 L 172.288,243.63 c 0.092,1.398, 0.21,2.79, 0.21,4.198
	C 172.498,282.552, 144.312,310.666, 109.527,310.666L 109.527,310.666z M 109.527,319.037c 25.492,0, 46.177,20.634, 46.177,46.080s-20.68,46.080-46.177,46.080
	c-25.498,0-46.188-20.634-46.188-46.080S 84.024,319.037, 109.527,319.037L 109.527,319.037z" />
<glyph unicode="&#xe005;" d="M 486.4,174.198L 486.4,3.84 L 387.635,3.84 L 387.635,162.79 c0,39.931-14.285,67.18-50.038,67.18c-27.29,0-43.53-18.365-50.673-36.127
	c-2.606-6.354-3.277-15.191-3.277-24.084L 283.648,3.84 L 184.852,3.84 c0,0, 1.331,269.21,0,297.103l 98.79,0 l0-42.112 c-0.2-0.317-0.461-0.655-0.65-0.963l 0.65,0 
	l0,0.963 c 13.123,20.214, 36.562,49.091, 89.027,49.091C 437.673,307.922, 486.4,265.457, 486.4,174.198z M 81.505,444.16C 47.708,444.16, 25.6,421.99, 25.6,392.837
	c0-28.518, 21.468-51.359, 54.595-51.359l 0.66,0 c 34.452,0, 55.88,22.835, 55.88,51.359C 136.084,421.99, 115.308,444.16, 81.505,444.16z M 31.468,3.84l 98.76,0 
	L 130.227,300.943 L 31.468,300.943 L 31.468,3.84 z" />
<glyph unicode="&#xe006;" d="M 94.671,450.264l 323.047,0 c 30.684,0, 55.784-25.101, 55.784-55.784l0-323.052 
		c0-30.684-25.101-55.784-55.784-55.784l-323.047,0 c-30.684,0-55.784,25.101-55.784,55.784L 38.887,394.485 
		C 38.883,425.164, 63.987,450.264, 94.671,450.264L 94.671,450.264z M 355.485,401.977c-10.763,0-19.563-8.804-19.563-19.568l0-46.834 
		c0-10.763, 8.8-19.568, 19.563-19.568l 49.123,0 c 10.759,0, 19.563,8.804, 19.563,19.568l0,46.834 c0,10.763-8.804,19.568-19.563,19.568L 355.485,401.977 L 355.485,401.977
		z M 424.383,266.471l-38.255,0 c 3.618-11.819, 5.578-24.33, 5.578-37.291c0-72.292-60.485-130.889-135.094-130.889
		c-74.607,0-135.088,58.601-135.088,130.889c0,12.959, 1.954,25.472, 5.572,37.291l-39.914,0 l0-183.591 c0-9.5, 7.774-17.278, 17.278-17.278l 302.652,0 
		c 9.5,0, 17.278,7.778, 17.278,17.278L 424.392,266.471 L 424.383,266.471z M 256.604,318.478c-48.204,0-87.286-37.868-87.286-84.574
		c0-46.711, 39.082-84.574, 87.286-84.574c 48.208,0, 87.29,37.868, 87.29,84.574C 343.894,280.611, 304.812,318.478, 256.604,318.478z" />
<glyph unicode="&#xe007;" d="M 491.162,376.658c-17.367-7.66-35.973-12.902-55.532-15.196c 19.958,11.94, 35.277,30.915, 42.516,53.412
	c-18.729-11.059-39.393-19.087-61.399-23.378c-17.603,18.729-42.742,30.505-70.543,30.505c-53.299,0-96.635-43.274-96.635-96.573
	c0-7.608, 0.881-15.002, 2.468-22.088c-80.251,4.055-151.491,42.516-199.178,100.966c-8.305-14.203-13.066-30.843-13.066-48.568
	c0-33.516, 17.070-63.109, 42.977-80.476c-15.79,0.532-30.74,4.895-43.745,12.124c0-0.42,0-0.778,0-1.188c0-46.92, 33.28-85.965, 77.548-94.843
	c-8.172-2.181-16.671-3.348-25.487-3.348c-6.195,0-12.257,0.543-18.207,1.7c 12.308-38.38, 47.974-66.355, 90.266-67.062
	c-33.024-25.969-74.721-41.503-120.003-41.503c-7.762,0-15.493,0.522-23.020,1.413c 42.742-27.433, 93.573-43.387, 148.142-43.387
	c 177.807,0, 274.924,147.21, 274.924,274.913c0,4.239-0.072,8.356-0.225,12.493C 461.793,340.275, 478.198,357.304, 491.162,376.658" />
<glyph unicode="&#xe008;" d="M 179.814,248.212l-48.794,0 l0,70.124 l 48.794,0 l0,18.877 c0,103.020, 62.843,124.385, 132.316,124.385c 24.392,0, 39.629-3.046, 59.704-9.155l-15.831-79.882
		c-12.211,1.848-22.564,2.442-39.035,2.442c-24.996,0-35.405-17.679-35.405-43.873l0-12.795 l 71.311,0 l0-70.124 l-71.311,0 l0-262.764 l-101.786,0 L 179.814,248.212 z" />
<glyph unicode="&#xe009;" d="M 40.243,151.716c0,37.821, 15.508,71.301, 48.973,93.128c-7.772,6.794-15.043,14.054-20.362,22.815c-9.201,15.053-14.556,32.512-14.556,50.913
		c0,58.173, 45.082,103.813, 105.231,103.813c 18.924,0, 35.907-4.879, 49.475-15.043l 91.177,0 l-5.832-50.949l-37.335,0 c0,0, 7.772-14.556, 7.772-37.821
		c0-17.925-4.367-35.384-13.578-50.427c-5.32-8.735-13.092-16.471-21.34-23.291c 32.015-21.827, 48.973-54.328, 48.973-93.128
		c0-71.301-52.378-117.371-119.311-117.371C 93.609,34.371, 40.243,78.5, 40.243,151.716z M 222.106,151.716c0,39.286-24.253,64.517-62.577,64.517
		c-37.821,0-62.577-25.242-62.577-64.517c0-38.799, 24.243-64.481, 62.577-64.481C 197.852,87.235, 222.106,113.905, 222.106,151.716z M 159.555,268.134
		c 29.087,0, 49.951,20.362, 49.951,50.427c0,30.597-20.838,50.437-49.951,50.437c-28.621,0-49.961-19.866-49.961-50.437
		C 109.568,288.497, 130.918,268.134, 159.555,268.134zM 300.191,261.76l 61.327,0 l0,62.781 l 38.083,0 L 399.626,261.76 l 61.327,0 l0-35.236 l-61.327,0 l0-62.781 l-38.083,0 l0,62.781 l-61.327,0 L 300.191,261.76 z" />
<glyph unicode="&#xe00c;" d="M 441.743,326.784L 326.277,326.784 l0,28.682 l 115.471,0 L 441.748,326.784 z M 249.416,209.178c 7.45-11.535, 11.172-25.549, 11.172-41.994
	c0-17.014-4.198-32.271-12.739-45.752c-5.432-8.924-12.175-16.456-20.28-22.518c-9.129-7.020-19.937-11.827-32.358-14.397
	C 182.748,81.94, 169.257,80.64, 154.726,80.64L 25.6,80.64 L 25.6,367.36 l 138.47,0 c 34.903-0.568, 59.648-10.68, 74.26-30.541c 8.765-12.18, 13.112-26.793, 13.112-43.781
	c0-17.531-4.398-31.555-13.251-42.214c-4.925-5.975-12.201-11.407-21.832-16.312C 230.948,229.171, 242.017,220.759, 249.416,209.178z M 91.725,254.321
	l 60.672,0 c 12.467,0, 22.548,2.371, 30.31,7.107c 7.757,4.731, 11.628,13.138, 11.628,25.211c0,13.338-5.125,22.19-15.401,26.45
	c-8.832,2.959-20.132,4.485-33.843,4.485L 91.725,317.573 L 91.725,254.321 z M 200.177,171.274c0,14.899-6.088,25.19-18.237,30.715
	c-6.794,3.144-16.379,4.746-28.672,4.859L 91.725,206.848 l0-76.406 l 60.59,0 c 12.447,0, 22.083,1.628, 29.036,5.028
	C 193.889,141.722, 200.177,153.615, 200.177,171.274z M 484.577,217.917c 1.398-9.38, 2.028-22.989, 1.772-40.776L 336.814,177.142 
	c 0.829-20.644, 7.951-35.077, 21.468-43.336c 8.146-5.181, 18.028-7.711, 29.599-7.711c 12.196,0, 22.144,3.087, 29.798,9.426
	c 4.173,3.359, 7.854,8.105, 11.034,14.085l 54.804,0 c-1.434-12.186-8.033-24.55-19.891-37.12c-18.376-19.963-44.15-29.983-77.24-29.983
	c-27.341,0-51.436,8.448-72.351,25.277c-20.849,16.886-31.314,44.278-31.314,82.273c0,35.63, 9.4,62.899, 28.262,81.884
	c 18.924,19.016, 43.356,28.483, 73.472,28.483c 17.848,0, 33.94-3.19, 48.292-9.605c 14.316-6.42, 26.138-16.527, 35.456-30.413
	C 476.631,248.172, 482.053,234.030, 484.577,217.917z M 430.633,212.567c-1.009,14.275-5.775,25.078-14.351,32.461
	c-8.515,7.404-19.144,11.121-31.826,11.121c-13.809,0-24.463-3.973-32.041-11.781c-7.624-7.793-12.37-18.386-14.316-31.8L 430.633,212.567 z" />
<glyph unicode="&#xe00d;" d="M 259.635,161.495l-64.635-64.584c-19.057-19.057-50.053-19.067-69.11,0c-19.067,19.067-19.057,50.043,0,69.1l 64.625,64.625
			l-32.86,32.86l-64.625-64.625c-37.161-37.171-37.13-97.649, 0.010-134.789c 37.161-37.171, 97.649-37.171, 134.789-0.010l 64.614,64.625L 259.635,161.495zM 251.238,291.389l 64.635,64.614c 19.057,19.046, 50.053,19.046, 69.11,0c 19.067-19.067, 19.057-50.053,0-69.11l-64.625-64.614l 32.86-32.86
			l 64.625,64.614c 37.161,37.181, 37.13,97.649-0.041,134.82c-37.13,37.181-97.618,37.181-134.779,0.010l-64.614-64.625L 251.238,291.389zM 102.861,400.783L 160.317,343.337L 138.557,321.567L 81.101,379.013zM 34.478,298.353L 115.732,298.353L 115.732,267.581L 34.478,267.581zM 183.511,447.386L 214.282,447.386L 214.282,366.131L 183.511,366.131zM 408.033,52.101L 350.587,109.558L 372.347,131.318L 429.793,73.861zM 395.121,185.293L 476.375,185.293L 476.375,154.522L 395.121,154.522zM 296.581,86.743L 327.352,86.743L 327.352,5.499L 296.581,5.499z" />
<glyph unicode="&#xe00f;" d="M 163.584,164.188L 318.705,319.304L 352.246,285.732L 197.125,130.637zM 234.66,141.056c-1.459-11.587-6.405-22.804-15.268-31.703l-41.236-41.226c-21.258-21.248-55.818-21.248-77.076,0
			c-21.268,21.268-21.268,55.818,0,77.112l 41.226,41.226c 8.873,8.873, 20.081,13.855, 31.703,15.288l 45.23,45.23
			c-38.062,14.684-82.888,6.764-113.592-23.895l-41.226-41.226c-41.426-41.426-41.426-108.902, 0.010-150.328c 41.426-41.472, 108.892-41.472, 150.328,0
			l 41.19,41.226c 30.705,30.659, 38.589,75.484, 23.905,113.546L 234.66,141.056zM 281.201,308.977c 1.459,11.576, 6.405,22.804, 15.288,31.713l 41.226,41.226c 21.248,21.248, 55.808,21.248, 77.066-0.010
			c 21.258-21.258, 21.258-55.818,0-77.076l-41.226-41.226c-8.873-8.883-20.081-13.855-31.703-15.278l-45.23-45.24
			c 38.062-14.694, 82.888-6.764, 113.592,23.895l 41.226,41.226c 41.416,41.462, 41.416,108.902-0.046,150.364c-41.426,41.472-108.892,41.472-150.318,0l-41.226-41.226
			c-30.705-30.659-38.579-75.494-23.905-113.546L 281.201,308.977z" />
<glyph unicode="&#xe010;" d="M 107.51,406.2l0-281.047 l 323.41,0 l0-37.908 L 69.571,87.245 L 69.571,406.2 l-37.908,0 l0-356.383 l 436.163,0 L 467.825,406.2 L 107.51,406.2 z M 219.761,237.926l-56.381,0 l0,56.381 l 56.381,0 
	L 219.761,237.926 z" />
<glyph unicode="&#xe011;" d="M 45.742,297.083L 95.56,297.083L 95.56-16.364L 406.415-16.364L 406.415,297.083L 453.632,297.083L 453.632,367.923L 45.742,367.923 
			zM 45.742,463.636L 453.622,463.636L 453.622,416.42L 45.742,416.42z" />
<glyph unicode="&#xe012;" d="M 45.967,463.636L 453.837,463.636L 453.837,369.203L 45.967,369.203zM 45.967,319.386l0-335.749 l 407.869,0 l0,335.749 L 45.967,319.386 z M 204.718,61.030l-28.191,0 l0,143.206 l-37.99,0 l-3.287,26.685l 69.468,0 L 204.718,61.030 z M 352.788,116.89
		l-18.657,0 l0-55.859 L 306.473,61.030 l0,55.859 l-71.229,0 l0,14.592 l 44.042,103.434l 29.215,0 l-38.758-91.372L 306.473,143.544 l0,28.928 l 27.658,0 l0-28.928 l 18.657,0 L 352.788,116.89 z" />
<glyph unicode="&#xe013;" d="M 39.588,171.653L 39.588,14.356L 196.905,14.356 	zM 61.655,193.618L 302.817,434.78L 459.561,278.067L 218.399,36.895z" />
<glyph unicode="&#xe00e;" d="M 338.985,274.412L 252.14,187.587L 165.335,274.412 z" />
<glyph unicode="&#xe014;" d="M 409.79,73.186c-53.333,0.209-81.749,26.291-101.496,72.251l-5.649,12.541l-48.685,111
	c-16.146,39.293-56.211,65.836-101.417,65.836c-61.167,0-110.792-49.626-110.792-110.836c0-61.209, 49.624-110.834, 110.792-110.834
	c 42.669,0, 79.771,24.125, 98.291,59.5l 19.688-45.416c-27.956-34.085-70.438-55.792-117.977-55.792C 68.29,71.436,0,139.687,0,223.979
	c0,84.252, 68.29,152.586, 152.542,152.586c 63.583,0, 114.918-33.959, 141-94.126c 1.978-4.668, 27.579-64.543, 49.913-115.5
	c 13.834-31.541, 25.63-52.459, 63.878-53.752c 37.584-1.291, 63.378,21.584, 63.378,50.504c0,28.25-19.668,35.041-52.875,46.082
	c-59.691,19.667-90.503,39.417-90.503,86.751c0,46.168, 31.416,76.959, 82.457,76.959c 33.248,0, 57.253-14.793, 73.88-44.293
	l-32.628-16.666c-12.295,17.207-25.854,24-43.086,24c-23.956,0-41.063-16.668-41.063-38.833c0-31.461, 28.147-36.211, 67.503-49.127
	C 487.375,231.314, 512,211.604, 512,162.396C 512.001,110.728, 467.664,73.102, 409.79,73.186z" />
<glyph unicode="&#xe016;" d="M 491.536,371.616l-147.152-148.048l 147.152-147.168c 6.16-6.144, 6.16-16.112,0-22.272
	l-66.816-66.8c-6.128-6.16-16.096-6.16-22.256,0l-146.912,146.912l-146.032-146.912c-6.144-6.16-16.112-6.16-22.272,0l-66.8,66.8
	c-6.144,6.16-6.144,16.128,0,22.272l 146.032,146.912L 20.464,369.328c-6.144,6.144-6.144,16.112,0,22.272l 66.8,66.8
	c 6.144,6.16, 16.112,6.16, 22.272,0l 145.76-145.76l 147.184,148.048c 6.16,6.16, 16.128,6.16, 22.256,0l 66.816-66.8
	C 497.68,387.728, 497.68,377.76, 491.536,371.616z" />
<glyph unicode="&#xe015;" d="M 448,224l-80,0 L 256,112L 144,224L 64,224 L0,96l0-32 l 512,0 l0,32 L 448,224z M0,32l 512,0 l0-32 L0,0 L0,32 z M 288,320L 288,448 l-64,0 l0-128 L 112,320 l 144-144l 144,144
	L 288,320 z" />
<glyph unicode="&#xe002;" d="M 306.466,135.749c-0.565,0-1.127,0-1.69,0c-18.308,3.004-30.769,15.921-41.403,27.885
	c-6.010,6.762-15.211,22.046-26.195,20.28c-15.595-2.509-7.86-29.141-14.364-40.559c-5.255-9.222-27.66-7.552-43.095-5.915
	c-48.743,5.171-73.645,31.185-95.483,59.149c-23.334,29.879-41.502,61.146-58.303,95.483c-5.439,11.117-12.669,23.41-12.675,37.179
	c 7.902,6.439, 20.792,4.225, 33.8,4.225c 11.033,0, 28.258,2.42, 36.334-1.69c 4.795-2.44, 9.646-15.395, 13.52-23.659c 8.894-18.971, 17.086-32.63, 27.885-48.164
	c 4.679-6.732, 11.86-19.436, 20.28-17.744c 8.172,1.641, 8.937,21.76, 9.295,34.644c 0.407,14.62-0.015,32.795-4.225,40.559c-3.968,7.318-11.239,7.463-18.59,11.83
	c 6.119,12.296, 22.883,13.52, 43.095,13.52c 16.988,0, 40.692,1.892, 47.319-9.295c 6.745-11.387, 2.118-31.926, 1.69-47.319c-0.482-17.292-3.46-35.151, 8.449-43.095
	c 9.18,0.996, 14.105,9.917, 19.434,16.9c 11.655,15.272, 18.875,28.496, 27.885,48.164c 3.7,8.078, 7.664,21.971, 14.364,24.505c 10.197,3.857, 26.466,0.846, 41.403,0.846
	c 12.234,0, 34.097,3.377, 38.024-5.070c 3.259-7.012-6.329-24.709-9.295-29.574c-11.309-18.553-22.42-30.367-34.644-46.474c-4.883-6.433-14.959-16.745-14.364-27.039
	c 0.451-7.826, 8.31-13.818, 14.364-19.434c 13.124-12.178, 22.32-21.066, 32.954-34.644c 4.007-5.117, 12.653-16.197, 11.83-22.815
	C 371.493,127.784, 322.857,140.72, 306.466,135.749z" horiz-adv-x="395" />
<glyph unicode="&#xe000;" d="M 416,416L 96,416 c-52.8,0-96-43.2-96-96l0-192 c0-52.8, 43.2-96, 96-96l 320,0 c 52.8,0, 96,43.2, 96,96L 512,320 C 512,372.8, 468.8,416, 416,416z
	 M 192,96L 192,352 l 160-128L 192,96z" />
<glyph unicode="&#xe00a;" d="M 141.487,68.794l 0.32,0 c 1.264-5.703, 6.332-9.98, 12.426-9.98l 210.638,0 
			c 6.089,0, 11.162,4.277, 12.427,9.98l 0.32,0 l 38.226,114.032L 104.97,182.827 L 141.487,68.794zM 463.832,336.566c-21.345,0-38.646-17.298-38.646-38.646c0-11.472, 5.035-21.75, 12.975-28.826
			c-16.954-8.451-36.069-13.215-56.296-13.215c-48.859,0-91.186,27.702-112.273,68.244c 16.906,4.132, 29.466,19.327, 29.466,37.501
			c0,21.346-17.307,38.645-38.646,38.645c-21.346,0-38.646-17.298-38.646-38.645c0-18.994, 13.703-34.746, 31.757-37.999
			c-21.173-40.269-63.37-67.746-112.028-67.746c-20.341,0-39.541,4.82-56.558,13.352c 7.854,7.073, 12.82,17.291, 12.82,28.696
			c0,21.346-17.307,38.646-38.646,38.646s-38.645-17.298-38.645-38.646c0-21.346, 17.298-38.645, 38.645-38.645
			c 5.181,0, 10.118,1.040, 14.628,2.889l 28.023-68.287l 319.858,0 l 26.475,68.77c 4.816-2.15, 10.125-3.372, 15.731-3.372
			c 21.345,0, 38.646,17.298, 38.646,38.645C 502.478,319.26, 485.17,336.566, 463.832,336.566z" />
<glyph unicode="&#xe00b;" d="M 317.497,122.926l0,133.678 c-91.531-25.367-125.37-80.718-135.297-133.678L 317.497,122.926 L 317.497,122.926z M 426.111,403.477l0-72.426 
		c 4.004,0.063, 8.027,0.103, 12.068,0.103c 111.645,0, 212.719-27.693, 285.877-72.468c 73.159-44.775, 118.417-106.615, 118.417-174.939
		c0-13.787-1.842-27.31-5.38-40.487l-19.343,0 l-123.837,0 l-243.666,0 l0,24.135 l0,55.512 l0,123.635 c 44.269-0.831, 79.929-6.306, 108.615-15.017l0-108.633 
		l 135.297,0 c-13.445,71.742-70.774,147.891-255.979,147.891c-4.084,0-8.106-0.039-12.068-0.103l0-147.772 l0-79.648 l-108.615,0 l-135.053,0 l-121.389,0 
		l-21.79,0 c-3.539,13.178-5.379,26.701-5.379,40.487c0,68.323, 45.243,130.164, 118.417,174.939c 45.622,27.916, 102.084,49.184, 165.195,61.251
		l0,73.579 C 352.492,399.481, 388.895,402.877, 426.111,403.477L 426.111,403.477z" horiz-adv-x="877" />
<glyph unicode="&#xf112;" d="M 512,160q0-47.429 -36.286-128.857q-0.857-2 -3-6.857t-3.857-8.571t-3.714-6.286q-3.429-4.857 -8-4.857q-4.286,0 -6.714,2.857t-2.429,7.143q0,2.571 0.714,7.571t 0.714,6.714q 1.429,19.429 1.429,35.143q0,28.857 -5,51.714t-13.857,39.571t-22.857,28.857t-30.143,19.857t-38,12.143t-44,6.143t-50.143,1.714l-64,0 l0-73.143 q0-7.429 -5.429-12.857t-12.857-5.429t-12.857,5.429 l-146.286,146.286q-5.429,5.429 -5.429,12.857t 5.429,12.857l 146.286,146.286q 5.429,5.429 12.857,5.429t 12.857-5.429t 5.429-12.857l0-73.143 l 64,0 q 203.714,0 250-115.143q 15.143-38.286 15.143-95.143z" />
<glyph unicode="&#xf079;" d="M 365.333,50.467q0-3.71 -2.711-6.422t-6.422-2.711l-274,0 q-2.284,0 -3.853,0.57t-2.568,1.998t-1.569,2.284t-0.856,3.283t-0.286,3.283l0,3.71 l0,3.14 l0,45.666 l0,118.733 l-54.8,0 q-7.421,0 -12.844,5.423t-5.423,12.844q0,6.85 4.282,11.702l 91.334,109.6q 5.423,6.279 13.985,6.279t 13.985-6.279l 91.334-109.6q 4.282-4.852 4.282-11.702q0-7.421 -5.423-12.844t-12.844-5.423l-54.8,0 l0-109.6 l 164.4,0 q 4.566,0 7.136-3.14l 45.666-54.8q 1.998-3.14 1.998-5.994 zM 548,169.201q0-6.85 -4.282-11.702l-91.334-109.6q-5.708-6.564 -13.985-6.564t-13.985,6.564l-91.334,109.6q-4.282,4.852 -4.282,11.702q0,7.421 5.423,12.844t 12.844,5.423l 54.8,0 l0,109.6 l-164.4,0 q-4.566,0 -7.136,3.425l-45.666,54.8q-1.998,2.568 -1.998,5.708q0,3.71 2.711,6.422t 6.422,2.711l 274,0 q 2.284,0 3.853-0.57t 2.568-1.998t 1.569-2.284t 0.856-3.283t 0.286-3.283l0-3.71 l0-3.14 l0-45.666 l0-118.733 l 54.8,0 q 7.421,0 12.844-5.423t 5.423-12.844z " horiz-adv-x="548" />
<glyph unicode="&#xf005;" d="M 475.214,295.143q0-6.286 -7.429-13.714l-103.714-101.143l 24.571-142.857q 0.286-2 0.286-5.714q0-6 -3-10.143t-8.714-4.143q-5.429,0 -11.429,3.429l-128.286,67.429l-128.286-67.429q-6.286-3.429 -11.429-3.429q-6,0 -9,4.143t-3,10.143q0,1.714 0.571,5.714l 24.571,142.857l-104,101.143q-7.143,7.714 -7.143,13.714q0,10.571 16,13.143l 143.429,20.857l 64.286,130q 5.429,11.714 14,11.714t 14-11.714l 64.286-130 l 143.429-20.857q 16-2.571 16-13.143z" horiz-adv-x="475" />
<glyph unicode="&#xe017;" d="M 220.57,141.363C 207.13,70.886, 190.72,3.302, 142.080-32c-15.002,106.547, 22.042,186.547, 39.245,271.488
	c-29.338,49.408, 3.533,148.787, 65.434,124.288c 76.16-30.131-65.946-183.629, 29.44-202.803c 99.61-20.019, 140.262,172.8, 78.515,235.494
	C 265.472,487.040, 94.925,398.566, 115.917,268.954c 5.094-31.693, 37.837-41.318, 13.082-85.043c-57.114,12.646-74.163,57.702-71.962,117.76
	C 60.57,399.949, 145.357,468.762, 230.4,478.285c 107.571,12.058, 208.512-39.475, 222.413-140.646c 15.693-114.176-48.512-237.85-163.558-228.941
	C 258.099,111.078, 245.018,126.515, 220.57,141.363z"  />
<glyph unicode="&#xe018;" d="M 256,480C 167.634,480, 96,408.366, 96,320c0-160, 160-352, 160-352s 160,192, 160,352C 416,408.366, 344.365,480, 256,480z M 256,224
	c-53.020,0-96,42.98-96,96s 42.98,96, 96,96s 96-42.98, 96-96S 309.020,224, 256,224z"  />
<glyph unicode="&#x20;" horiz-adv-x="256" />
</font>
</defs>
</svg>
